<mxfile host="app.diagrams.net" modified="2024-07-21T13:11:24.234Z" agent="Mozilla/5.0 (Windows NT 10.0; Win64; x64) AppleWebKit/537.36 (KHTML, like Gecko) Chrome/126.0.0.0 Safari/537.36" etag="v5RZHS3MsPkGaPm0fz3X" version="24.7.1" type="device">
  <diagram name="Page-1" id="gYIjuvFdzs4C5QcFScUS">
    <mxGraphModel dx="7122" dy="4479" grid="1" gridSize="10" guides="1" tooltips="1" connect="1" arrows="1" fold="1" page="1" pageScale="1" pageWidth="827" pageHeight="1169" math="0" shadow="0">
      <root>
        <mxCell id="0" />
        <mxCell id="1" parent="0" />
        <mxCell id="2vuc5O_I5Wunuj1L5ysl-2" value="&lt;font style=&quot;font-size: 16px;&quot;&gt;&lt;b&gt;Sitemap&lt;/b&gt;&lt;/font&gt;" style="rounded=0;whiteSpace=wrap;html=1;textShadow=0;" parent="1" vertex="1">
          <mxGeometry x="1130" y="-440" width="120" height="60" as="geometry" />
        </mxCell>
        <mxCell id="2vuc5O_I5Wunuj1L5ysl-3" value="" style="endArrow=classic;html=1;rounded=0;exitX=0.5;exitY=1;exitDx=0;exitDy=0;" parent="1" source="2vuc5O_I5Wunuj1L5ysl-2" edge="1">
          <mxGeometry width="50" height="50" relative="1" as="geometry">
            <mxPoint x="1250" y="-290" as="sourcePoint" />
            <mxPoint x="1190" y="-320" as="targetPoint" />
          </mxGeometry>
        </mxCell>
        <mxCell id="2vuc5O_I5Wunuj1L5ysl-4" value="&lt;font style=&quot;font-size: 16px;&quot;&gt;Homepage&lt;/font&gt;" style="rounded=0;whiteSpace=wrap;html=1;" parent="1" vertex="1">
          <mxGeometry x="1130" y="-320" width="120" height="60" as="geometry" />
        </mxCell>
        <mxCell id="2vuc5O_I5Wunuj1L5ysl-6" value="" style="endArrow=classic;html=1;rounded=0;exitX=0.5;exitY=1;exitDx=0;exitDy=0;entryX=0.5;entryY=0;entryDx=0;entryDy=0;" parent="1" source="2vuc5O_I5Wunuj1L5ysl-4" target="2vuc5O_I5Wunuj1L5ysl-10" edge="1">
          <mxGeometry width="50" height="50" relative="1" as="geometry">
            <mxPoint x="1260" y="-180" as="sourcePoint" />
            <mxPoint x="1330" y="-200" as="targetPoint" />
            <Array as="points">
              <mxPoint x="1190" y="-230" />
              <mxPoint x="1350" y="-230" />
            </Array>
          </mxGeometry>
        </mxCell>
        <mxCell id="2vuc5O_I5Wunuj1L5ysl-7" value="" style="endArrow=classic;html=1;rounded=0;exitX=0.5;exitY=1;exitDx=0;exitDy=0;" parent="1" source="2vuc5O_I5Wunuj1L5ysl-4" edge="1">
          <mxGeometry width="50" height="50" relative="1" as="geometry">
            <mxPoint x="1180" y="-140" as="sourcePoint" />
            <mxPoint x="1190" y="-200" as="targetPoint" />
          </mxGeometry>
        </mxCell>
        <mxCell id="2vuc5O_I5Wunuj1L5ysl-8" value="" style="endArrow=classic;html=1;rounded=0;exitX=0.5;exitY=1;exitDx=0;exitDy=0;entryX=0.5;entryY=0;entryDx=0;entryDy=0;" parent="1" source="2vuc5O_I5Wunuj1L5ysl-4" target="2vuc5O_I5Wunuj1L5ysl-11" edge="1">
          <mxGeometry width="50" height="50" relative="1" as="geometry">
            <mxPoint x="1150" y="-120" as="sourcePoint" />
            <mxPoint x="1050" y="-200" as="targetPoint" />
            <Array as="points">
              <mxPoint x="1190" y="-230" />
              <mxPoint x="1030" y="-230" />
            </Array>
          </mxGeometry>
        </mxCell>
        <mxCell id="2vuc5O_I5Wunuj1L5ysl-9" value="About page" style="rounded=0;whiteSpace=wrap;html=1;" parent="1" vertex="1">
          <mxGeometry x="1130" y="-200" width="120" height="60" as="geometry" />
        </mxCell>
        <mxCell id="2vuc5O_I5Wunuj1L5ysl-10" value="Features" style="rounded=0;whiteSpace=wrap;html=1;" parent="1" vertex="1">
          <mxGeometry x="1290" y="-200" width="120" height="60" as="geometry" />
        </mxCell>
        <mxCell id="2vuc5O_I5Wunuj1L5ysl-11" value="Contact us" style="rounded=0;whiteSpace=wrap;html=1;" parent="1" vertex="1">
          <mxGeometry x="970" y="-200" width="120" height="60" as="geometry" />
        </mxCell>
        <mxCell id="2vuc5O_I5Wunuj1L5ysl-12" value="&lt;font style=&quot;font-size: 24px;&quot;&gt;Home page&lt;/font&gt;" style="text;html=1;align=center;verticalAlign=middle;whiteSpace=wrap;rounded=0;fontStyle=4" parent="1" vertex="1">
          <mxGeometry x="593" y="70" width="220" height="30" as="geometry" />
        </mxCell>
        <mxCell id="2vuc5O_I5Wunuj1L5ysl-13" value="" style="rounded=0;whiteSpace=wrap;html=1;" parent="1" vertex="1">
          <mxGeometry x="640" y="120" width="400" height="240" as="geometry" />
        </mxCell>
        <mxCell id="2vuc5O_I5Wunuj1L5ysl-21" value="" style="endArrow=none;html=1;rounded=0;entryX=1;entryY=0;entryDx=0;entryDy=0;exitX=0;exitY=1;exitDx=0;exitDy=0;" parent="1" source="2vuc5O_I5Wunuj1L5ysl-13" target="2vuc5O_I5Wunuj1L5ysl-13" edge="1">
          <mxGeometry width="50" height="50" relative="1" as="geometry">
            <mxPoint x="680" y="360" as="sourcePoint" />
            <mxPoint x="730" y="310" as="targetPoint" />
          </mxGeometry>
        </mxCell>
        <mxCell id="2vuc5O_I5Wunuj1L5ysl-22" value="" style="endArrow=none;html=1;rounded=0;exitX=0;exitY=0;exitDx=0;exitDy=0;entryX=1;entryY=1;entryDx=0;entryDy=0;" parent="1" source="2vuc5O_I5Wunuj1L5ysl-13" target="2vuc5O_I5Wunuj1L5ysl-13" edge="1">
          <mxGeometry width="50" height="50" relative="1" as="geometry">
            <mxPoint x="730" y="230" as="sourcePoint" />
            <mxPoint x="780" y="180" as="targetPoint" />
          </mxGeometry>
        </mxCell>
        <mxCell id="2vuc5O_I5Wunuj1L5ysl-23" value="&lt;font style=&quot;font-size: 30px;&quot;&gt;L&lt;/font&gt;" style="ellipse;whiteSpace=wrap;html=1;" parent="1" vertex="1">
          <mxGeometry x="650" y="135" width="80" height="80" as="geometry" />
        </mxCell>
        <mxCell id="2vuc5O_I5Wunuj1L5ysl-24" value="" style="rounded=0;whiteSpace=wrap;html=1;" parent="1" vertex="1">
          <mxGeometry x="740" y="160" width="290" height="30" as="geometry" />
        </mxCell>
        <mxCell id="2vuc5O_I5Wunuj1L5ysl-31" value="" style="rounded=0;whiteSpace=wrap;html=1;" parent="1" vertex="1">
          <mxGeometry x="813" y="160" width="73" height="30" as="geometry" />
        </mxCell>
        <mxCell id="2vuc5O_I5Wunuj1L5ysl-32" value="" style="rounded=0;whiteSpace=wrap;html=1;" parent="1" vertex="1">
          <mxGeometry x="886" y="160" width="73" height="30" as="geometry" />
        </mxCell>
        <mxCell id="2vuc5O_I5Wunuj1L5ysl-34" value="Slide images" style="text;html=1;align=center;verticalAlign=middle;whiteSpace=wrap;rounded=0;" parent="1" vertex="1">
          <mxGeometry x="803" y="320" width="80" height="20" as="geometry" />
        </mxCell>
        <mxCell id="2vuc5O_I5Wunuj1L5ysl-35" value="" style="rounded=0;whiteSpace=wrap;html=1;" parent="1" vertex="1">
          <mxGeometry x="640" y="360" width="400" height="230" as="geometry" />
        </mxCell>
        <mxCell id="2vuc5O_I5Wunuj1L5ysl-36" value="" style="whiteSpace=wrap;html=1;aspect=fixed;" parent="1" vertex="1">
          <mxGeometry x="650" y="390" width="170" height="170" as="geometry" />
        </mxCell>
        <mxCell id="2vuc5O_I5Wunuj1L5ysl-37" value="" style="endArrow=none;html=1;rounded=0;entryX=1;entryY=0;entryDx=0;entryDy=0;exitX=0;exitY=1;exitDx=0;exitDy=0;" parent="1" source="2vuc5O_I5Wunuj1L5ysl-36" target="2vuc5O_I5Wunuj1L5ysl-36" edge="1">
          <mxGeometry width="50" height="50" relative="1" as="geometry">
            <mxPoint x="670" y="510" as="sourcePoint" />
            <mxPoint x="720" y="460" as="targetPoint" />
          </mxGeometry>
        </mxCell>
        <mxCell id="2vuc5O_I5Wunuj1L5ysl-38" value="" style="endArrow=none;html=1;rounded=0;exitX=0;exitY=0;exitDx=0;exitDy=0;entryX=1;entryY=1;entryDx=0;entryDy=0;" parent="1" source="2vuc5O_I5Wunuj1L5ysl-36" target="2vuc5O_I5Wunuj1L5ysl-36" edge="1">
          <mxGeometry width="50" height="50" relative="1" as="geometry">
            <mxPoint x="820" y="500" as="sourcePoint" />
            <mxPoint x="870" y="450" as="targetPoint" />
          </mxGeometry>
        </mxCell>
        <mxCell id="2vuc5O_I5Wunuj1L5ysl-41" value="Lorem ipsum dolor sit amet, consectetur adipisicing elit, sed do eiusmod tempor incididunt ut labore et dolore magna aliqua. Ut enim ad minim veniam, quis nostrud exercitation ullamco laboris nisi ut aliquip ex ea commodo consequat." style="text;spacingTop=-5;whiteSpace=wrap;html=1;align=left;fontSize=12;fontFamily=Helvetica;fillColor=none;strokeColor=none;" parent="1" vertex="1">
          <mxGeometry x="836" y="415" width="194" height="110" as="geometry" />
        </mxCell>
        <mxCell id="2vuc5O_I5Wunuj1L5ysl-42" value="Button" style="rounded=1;fillColor=#0057D8;strokeColor=none;html=1;whiteSpace=wrap;fontColor=#ffffff;align=center;verticalAlign=middle;fontStyle=0;fontSize=12;sketch=0;" parent="1" vertex="1">
          <mxGeometry x="836" y="525" width="63" height="30" as="geometry" />
        </mxCell>
        <mxCell id="2vuc5O_I5Wunuj1L5ysl-43" value="" style="verticalLabelPosition=bottom;shadow=0;dashed=0;align=center;html=1;verticalAlign=top;strokeWidth=1;shape=mxgraph.mockup.navigation.pageControl;fillColor=#999999;strokeColor=#ddeeff;" parent="1" vertex="1">
          <mxGeometry x="813" y="335" width="60" height="30" as="geometry" />
        </mxCell>
        <mxCell id="2vuc5O_I5Wunuj1L5ysl-44" value="Title" style="text;strokeColor=none;fillColor=none;html=1;fontSize=24;fontStyle=1;verticalAlign=middle;align=center;" parent="1" vertex="1">
          <mxGeometry x="808.5" y="380" width="100" height="40" as="geometry" />
        </mxCell>
        <mxCell id="2vuc5O_I5Wunuj1L5ysl-45" value="" style="rounded=0;whiteSpace=wrap;html=1;" parent="1" vertex="1">
          <mxGeometry x="640" y="590" width="400" height="130" as="geometry" />
        </mxCell>
        <mxCell id="2vuc5O_I5Wunuj1L5ysl-47" value="" style="endArrow=classic;html=1;rounded=0;" parent="1" edge="1">
          <mxGeometry width="50" height="50" relative="1" as="geometry">
            <mxPoint x="1000" y="239.66" as="sourcePoint" />
            <mxPoint x="1030" y="239.66" as="targetPoint" />
            <Array as="points">
              <mxPoint x="1020" y="239.66" />
            </Array>
          </mxGeometry>
        </mxCell>
        <mxCell id="2vuc5O_I5Wunuj1L5ysl-48" value="" style="endArrow=classic;html=1;rounded=0;" parent="1" edge="1">
          <mxGeometry width="50" height="50" relative="1" as="geometry">
            <mxPoint x="680" y="239.66" as="sourcePoint" />
            <mxPoint x="650" y="239.66" as="targetPoint" />
          </mxGeometry>
        </mxCell>
        <mxCell id="2vuc5O_I5Wunuj1L5ysl-49" value="Title" style="text;strokeColor=none;fillColor=none;html=1;fontSize=24;fontStyle=1;verticalAlign=middle;align=center;" parent="1" vertex="1">
          <mxGeometry x="783" y="600" width="100" height="40" as="geometry" />
        </mxCell>
        <mxCell id="2vuc5O_I5Wunuj1L5ysl-51" value="" style="rounded=0;whiteSpace=wrap;html=1;" parent="1" vertex="1">
          <mxGeometry x="650" y="660" width="40" height="40" as="geometry" />
        </mxCell>
        <mxCell id="2vuc5O_I5Wunuj1L5ysl-52" value="" style="endArrow=none;html=1;rounded=0;exitX=0;exitY=1;exitDx=0;exitDy=0;" parent="1" source="2vuc5O_I5Wunuj1L5ysl-51" edge="1">
          <mxGeometry width="50" height="50" relative="1" as="geometry">
            <mxPoint x="640" y="710" as="sourcePoint" />
            <mxPoint x="690" y="660" as="targetPoint" />
          </mxGeometry>
        </mxCell>
        <mxCell id="2vuc5O_I5Wunuj1L5ysl-53" value="" style="endArrow=none;html=1;rounded=0;exitX=0;exitY=0;exitDx=0;exitDy=0;entryX=1;entryY=1;entryDx=0;entryDy=0;" parent="1" source="2vuc5O_I5Wunuj1L5ysl-51" target="2vuc5O_I5Wunuj1L5ysl-51" edge="1">
          <mxGeometry width="50" height="50" relative="1" as="geometry">
            <mxPoint x="640" y="590" as="sourcePoint" />
            <mxPoint x="690" y="540" as="targetPoint" />
          </mxGeometry>
        </mxCell>
        <mxCell id="2vuc5O_I5Wunuj1L5ysl-71" value="" style="rounded=0;whiteSpace=wrap;html=1;" parent="1" vertex="1">
          <mxGeometry x="710" y="660" width="40" height="40" as="geometry" />
        </mxCell>
        <mxCell id="2vuc5O_I5Wunuj1L5ysl-72" value="" style="endArrow=none;html=1;rounded=0;exitX=0;exitY=1;exitDx=0;exitDy=0;" parent="1" source="2vuc5O_I5Wunuj1L5ysl-71" edge="1">
          <mxGeometry width="50" height="50" relative="1" as="geometry">
            <mxPoint x="700" y="710" as="sourcePoint" />
            <mxPoint x="750" y="660" as="targetPoint" />
          </mxGeometry>
        </mxCell>
        <mxCell id="2vuc5O_I5Wunuj1L5ysl-73" value="" style="endArrow=none;html=1;rounded=0;exitX=0;exitY=0;exitDx=0;exitDy=0;entryX=1;entryY=1;entryDx=0;entryDy=0;" parent="1" source="2vuc5O_I5Wunuj1L5ysl-71" target="2vuc5O_I5Wunuj1L5ysl-71" edge="1">
          <mxGeometry width="50" height="50" relative="1" as="geometry">
            <mxPoint x="700" y="590" as="sourcePoint" />
            <mxPoint x="750" y="540" as="targetPoint" />
          </mxGeometry>
        </mxCell>
        <mxCell id="2vuc5O_I5Wunuj1L5ysl-74" value="" style="rounded=0;whiteSpace=wrap;html=1;" parent="1" vertex="1">
          <mxGeometry x="768.5" y="660" width="40" height="40" as="geometry" />
        </mxCell>
        <mxCell id="2vuc5O_I5Wunuj1L5ysl-75" value="" style="endArrow=none;html=1;rounded=0;exitX=0;exitY=1;exitDx=0;exitDy=0;" parent="1" source="2vuc5O_I5Wunuj1L5ysl-74" edge="1">
          <mxGeometry width="50" height="50" relative="1" as="geometry">
            <mxPoint x="758.5" y="710" as="sourcePoint" />
            <mxPoint x="808.5" y="660" as="targetPoint" />
          </mxGeometry>
        </mxCell>
        <mxCell id="2vuc5O_I5Wunuj1L5ysl-76" value="" style="endArrow=none;html=1;rounded=0;exitX=0;exitY=0;exitDx=0;exitDy=0;entryX=1;entryY=1;entryDx=0;entryDy=0;" parent="1" source="2vuc5O_I5Wunuj1L5ysl-74" target="2vuc5O_I5Wunuj1L5ysl-74" edge="1">
          <mxGeometry width="50" height="50" relative="1" as="geometry">
            <mxPoint x="758.5" y="590" as="sourcePoint" />
            <mxPoint x="808.5" y="540" as="targetPoint" />
          </mxGeometry>
        </mxCell>
        <mxCell id="2vuc5O_I5Wunuj1L5ysl-77" value="" style="rounded=0;whiteSpace=wrap;html=1;" parent="1" vertex="1">
          <mxGeometry x="827" y="660" width="40" height="40" as="geometry" />
        </mxCell>
        <mxCell id="2vuc5O_I5Wunuj1L5ysl-78" value="" style="endArrow=none;html=1;rounded=0;exitX=0;exitY=1;exitDx=0;exitDy=0;" parent="1" source="2vuc5O_I5Wunuj1L5ysl-77" edge="1">
          <mxGeometry width="50" height="50" relative="1" as="geometry">
            <mxPoint x="817" y="710" as="sourcePoint" />
            <mxPoint x="867" y="660" as="targetPoint" />
          </mxGeometry>
        </mxCell>
        <mxCell id="2vuc5O_I5Wunuj1L5ysl-79" value="" style="endArrow=none;html=1;rounded=0;exitX=0;exitY=0;exitDx=0;exitDy=0;entryX=1;entryY=1;entryDx=0;entryDy=0;" parent="1" source="2vuc5O_I5Wunuj1L5ysl-77" target="2vuc5O_I5Wunuj1L5ysl-77" edge="1">
          <mxGeometry width="50" height="50" relative="1" as="geometry">
            <mxPoint x="817" y="590" as="sourcePoint" />
            <mxPoint x="867" y="540" as="targetPoint" />
          </mxGeometry>
        </mxCell>
        <mxCell id="2vuc5O_I5Wunuj1L5ysl-83" value="" style="rounded=0;whiteSpace=wrap;html=1;" parent="1" vertex="1">
          <mxGeometry x="883" y="660" width="40" height="40" as="geometry" />
        </mxCell>
        <mxCell id="2vuc5O_I5Wunuj1L5ysl-84" value="" style="endArrow=none;html=1;rounded=0;exitX=0;exitY=1;exitDx=0;exitDy=0;" parent="1" source="2vuc5O_I5Wunuj1L5ysl-83" edge="1">
          <mxGeometry width="50" height="50" relative="1" as="geometry">
            <mxPoint x="873" y="710" as="sourcePoint" />
            <mxPoint x="923" y="660" as="targetPoint" />
          </mxGeometry>
        </mxCell>
        <mxCell id="2vuc5O_I5Wunuj1L5ysl-85" value="" style="endArrow=none;html=1;rounded=0;exitX=0;exitY=0;exitDx=0;exitDy=0;entryX=1;entryY=1;entryDx=0;entryDy=0;" parent="1" source="2vuc5O_I5Wunuj1L5ysl-83" target="2vuc5O_I5Wunuj1L5ysl-83" edge="1">
          <mxGeometry width="50" height="50" relative="1" as="geometry">
            <mxPoint x="873" y="590" as="sourcePoint" />
            <mxPoint x="923" y="540" as="targetPoint" />
          </mxGeometry>
        </mxCell>
        <mxCell id="2vuc5O_I5Wunuj1L5ysl-86" value="" style="rounded=0;whiteSpace=wrap;html=1;" parent="1" vertex="1">
          <mxGeometry x="940" y="660" width="40" height="40" as="geometry" />
        </mxCell>
        <mxCell id="2vuc5O_I5Wunuj1L5ysl-87" value="" style="endArrow=none;html=1;rounded=0;exitX=0;exitY=1;exitDx=0;exitDy=0;" parent="1" source="2vuc5O_I5Wunuj1L5ysl-86" edge="1">
          <mxGeometry width="50" height="50" relative="1" as="geometry">
            <mxPoint x="930" y="710" as="sourcePoint" />
            <mxPoint x="980" y="660" as="targetPoint" />
          </mxGeometry>
        </mxCell>
        <mxCell id="2vuc5O_I5Wunuj1L5ysl-88" value="" style="endArrow=none;html=1;rounded=0;exitX=0;exitY=0;exitDx=0;exitDy=0;entryX=1;entryY=1;entryDx=0;entryDy=0;" parent="1" source="2vuc5O_I5Wunuj1L5ysl-86" target="2vuc5O_I5Wunuj1L5ysl-86" edge="1">
          <mxGeometry width="50" height="50" relative="1" as="geometry">
            <mxPoint x="930" y="590" as="sourcePoint" />
            <mxPoint x="980" y="540" as="targetPoint" />
          </mxGeometry>
        </mxCell>
        <mxCell id="2vuc5O_I5Wunuj1L5ysl-89" value="" style="rounded=0;whiteSpace=wrap;html=1;" parent="1" vertex="1">
          <mxGeometry x="990" y="660" width="40" height="40" as="geometry" />
        </mxCell>
        <mxCell id="2vuc5O_I5Wunuj1L5ysl-90" value="" style="endArrow=none;html=1;rounded=0;exitX=0;exitY=1;exitDx=0;exitDy=0;" parent="1" source="2vuc5O_I5Wunuj1L5ysl-89" edge="1">
          <mxGeometry width="50" height="50" relative="1" as="geometry">
            <mxPoint x="980" y="710" as="sourcePoint" />
            <mxPoint x="1030" y="660" as="targetPoint" />
          </mxGeometry>
        </mxCell>
        <mxCell id="2vuc5O_I5Wunuj1L5ysl-91" value="" style="endArrow=none;html=1;rounded=0;exitX=0;exitY=0;exitDx=0;exitDy=0;entryX=1;entryY=1;entryDx=0;entryDy=0;" parent="1" source="2vuc5O_I5Wunuj1L5ysl-89" target="2vuc5O_I5Wunuj1L5ysl-89" edge="1">
          <mxGeometry width="50" height="50" relative="1" as="geometry">
            <mxPoint x="980" y="590" as="sourcePoint" />
            <mxPoint x="1030" y="540" as="targetPoint" />
          </mxGeometry>
        </mxCell>
        <mxCell id="2vuc5O_I5Wunuj1L5ysl-92" value="" style="rounded=0;whiteSpace=wrap;html=1;" parent="1" vertex="1">
          <mxGeometry x="640" y="720" width="400" height="240" as="geometry" />
        </mxCell>
        <mxCell id="2vuc5O_I5Wunuj1L5ysl-93" value="Title" style="text;strokeColor=none;fillColor=none;html=1;fontSize=24;fontStyle=1;verticalAlign=middle;align=left;" parent="1" vertex="1">
          <mxGeometry x="660" y="740" width="100" height="50" as="geometry" />
        </mxCell>
        <mxCell id="2vuc5O_I5Wunuj1L5ysl-94" value="" style="rounded=0;whiteSpace=wrap;html=1;" parent="1" vertex="1">
          <mxGeometry x="660" y="790" width="90" height="10" as="geometry" />
        </mxCell>
        <mxCell id="2vuc5O_I5Wunuj1L5ysl-95" value="" style="rounded=0;whiteSpace=wrap;html=1;" parent="1" vertex="1">
          <mxGeometry x="660" y="810" width="90" height="10" as="geometry" />
        </mxCell>
        <mxCell id="2vuc5O_I5Wunuj1L5ysl-96" value="" style="rounded=0;whiteSpace=wrap;html=1;" parent="1" vertex="1">
          <mxGeometry x="660" y="830" width="90" height="50" as="geometry" />
        </mxCell>
        <mxCell id="2vuc5O_I5Wunuj1L5ysl-98" value="Button" style="rounded=1;fillColor=#0057D8;strokeColor=none;html=1;whiteSpace=wrap;fontColor=#ffffff;align=center;verticalAlign=middle;fontStyle=0;fontSize=12;sketch=0;" parent="1" vertex="1">
          <mxGeometry x="660" y="890" width="63" height="30" as="geometry" />
        </mxCell>
        <mxCell id="2vuc5O_I5Wunuj1L5ysl-99" value="Title" style="text;strokeColor=none;fillColor=none;html=1;fontSize=24;fontStyle=1;verticalAlign=middle;align=left;" parent="1" vertex="1">
          <mxGeometry x="773" y="740" width="100" height="50" as="geometry" />
        </mxCell>
        <mxCell id="2vuc5O_I5Wunuj1L5ysl-100" value="Lorem ipsum dolor sit amet, consectetur adipisicing elit, sed do eiusmod tempor incididunt ut labore et dolore magna&amp;nbsp;" style="text;spacingTop=-5;whiteSpace=wrap;html=1;align=left;fontSize=12;fontFamily=Helvetica;fillColor=none;strokeColor=none;" parent="1" vertex="1">
          <mxGeometry x="776" y="785" width="107" height="110" as="geometry" />
        </mxCell>
        <mxCell id="2vuc5O_I5Wunuj1L5ysl-102" value="" style="rounded=0;whiteSpace=wrap;html=1;" parent="1" vertex="1">
          <mxGeometry x="923" y="800" width="10" height="10" as="geometry" />
        </mxCell>
        <mxCell id="2vuc5O_I5Wunuj1L5ysl-103" value="" style="endArrow=none;html=1;rounded=0;exitX=0;exitY=1;exitDx=0;exitDy=0;entryX=1;entryY=0;entryDx=0;entryDy=0;" parent="1" source="2vuc5O_I5Wunuj1L5ysl-102" target="2vuc5O_I5Wunuj1L5ysl-102" edge="1">
          <mxGeometry width="50" height="50" relative="1" as="geometry">
            <mxPoint x="933" y="840" as="sourcePoint" />
            <mxPoint x="983" y="790" as="targetPoint" />
          </mxGeometry>
        </mxCell>
        <mxCell id="2vuc5O_I5Wunuj1L5ysl-104" value="" style="endArrow=none;html=1;rounded=0;exitX=0;exitY=0;exitDx=0;exitDy=0;entryX=1;entryY=1;entryDx=0;entryDy=0;" parent="1" source="2vuc5O_I5Wunuj1L5ysl-102" target="2vuc5O_I5Wunuj1L5ysl-102" edge="1">
          <mxGeometry width="50" height="50" relative="1" as="geometry">
            <mxPoint x="943" y="850" as="sourcePoint" />
            <mxPoint x="993" y="800" as="targetPoint" />
          </mxGeometry>
        </mxCell>
        <mxCell id="2vuc5O_I5Wunuj1L5ysl-105" value="" style="rounded=0;whiteSpace=wrap;html=1;" parent="1" vertex="1">
          <mxGeometry x="923" y="830" width="10" height="10" as="geometry" />
        </mxCell>
        <mxCell id="2vuc5O_I5Wunuj1L5ysl-106" value="" style="endArrow=none;html=1;rounded=0;exitX=0;exitY=1;exitDx=0;exitDy=0;entryX=1;entryY=0;entryDx=0;entryDy=0;" parent="1" source="2vuc5O_I5Wunuj1L5ysl-105" target="2vuc5O_I5Wunuj1L5ysl-105" edge="1">
          <mxGeometry width="50" height="50" relative="1" as="geometry">
            <mxPoint x="933" y="870" as="sourcePoint" />
            <mxPoint x="983" y="820" as="targetPoint" />
          </mxGeometry>
        </mxCell>
        <mxCell id="2vuc5O_I5Wunuj1L5ysl-107" value="" style="endArrow=none;html=1;rounded=0;exitX=0;exitY=0;exitDx=0;exitDy=0;entryX=1;entryY=1;entryDx=0;entryDy=0;" parent="1" source="2vuc5O_I5Wunuj1L5ysl-105" target="2vuc5O_I5Wunuj1L5ysl-105" edge="1">
          <mxGeometry width="50" height="50" relative="1" as="geometry">
            <mxPoint x="943" y="880" as="sourcePoint" />
            <mxPoint x="993" y="830" as="targetPoint" />
          </mxGeometry>
        </mxCell>
        <mxCell id="2vuc5O_I5Wunuj1L5ysl-108" value="" style="rounded=0;whiteSpace=wrap;html=1;" parent="1" vertex="1">
          <mxGeometry x="940" y="800" width="90" height="10" as="geometry" />
        </mxCell>
        <mxCell id="2vuc5O_I5Wunuj1L5ysl-110" value="" style="rounded=0;whiteSpace=wrap;html=1;" parent="1" vertex="1">
          <mxGeometry x="940" y="830" width="90" height="10" as="geometry" />
        </mxCell>
        <mxCell id="2vuc5O_I5Wunuj1L5ysl-111" value="Lorem ipsum dolor sit amet, consectetur adipisicing elit, sed" style="text;spacingTop=-5;whiteSpace=wrap;html=1;align=left;fontSize=12;fontFamily=Helvetica;fillColor=none;strokeColor=none;" parent="1" vertex="1">
          <mxGeometry x="923" y="850" width="107" height="60" as="geometry" />
        </mxCell>
        <mxCell id="2vuc5O_I5Wunuj1L5ysl-112" value="" style="rounded=1;whiteSpace=wrap;html=1;strokeWidth=2;fillWeight=4;hachureGap=8;hachureAngle=45;fillColor=#1ba1e2;sketch=1;" parent="1" vertex="1">
          <mxGeometry x="740" y="160" width="73" height="30" as="geometry" />
        </mxCell>
        <mxCell id="2vuc5O_I5Wunuj1L5ysl-113" value="&lt;font style=&quot;font-size: 20px;&quot;&gt;Menu&lt;/font&gt;" style="text;html=1;align=center;verticalAlign=middle;whiteSpace=wrap;rounded=0;" parent="1" vertex="1">
          <mxGeometry x="1110" y="155" width="80" height="40" as="geometry" />
        </mxCell>
        <mxCell id="2vuc5O_I5Wunuj1L5ysl-114" value="&lt;font style=&quot;font-size: 20px;&quot;&gt;Hero banner&lt;/font&gt;" style="text;html=1;align=center;verticalAlign=middle;whiteSpace=wrap;rounded=0;" parent="1" vertex="1">
          <mxGeometry x="1120" y="200" width="120" height="40" as="geometry" />
        </mxCell>
        <mxCell id="2vuc5O_I5Wunuj1L5ysl-115" value="&lt;font style=&quot;font-size: 20px;&quot;&gt;About us&lt;/font&gt;" style="text;html=1;align=center;verticalAlign=middle;whiteSpace=wrap;rounded=0;" parent="1" vertex="1">
          <mxGeometry x="1110" y="410" width="110" height="40" as="geometry" />
        </mxCell>
        <mxCell id="2vuc5O_I5Wunuj1L5ysl-116" value="&lt;font style=&quot;font-size: 20px;&quot;&gt;Sponsers&lt;/font&gt;" style="text;html=1;align=center;verticalAlign=middle;whiteSpace=wrap;rounded=0;" parent="1" vertex="1">
          <mxGeometry x="1110" y="630" width="110" height="40" as="geometry" />
        </mxCell>
        <mxCell id="2vuc5O_I5Wunuj1L5ysl-117" value="&lt;font style=&quot;font-size: 20px;&quot;&gt;Footer&lt;/font&gt;" style="text;html=1;align=center;verticalAlign=middle;whiteSpace=wrap;rounded=0;" parent="1" vertex="1">
          <mxGeometry x="1110" y="790" width="110" height="40" as="geometry" />
        </mxCell>
        <mxCell id="2vuc5O_I5Wunuj1L5ysl-118" value="&lt;font style=&quot;font-size: 20px;&quot;&gt;Business contact info&lt;/font&gt;&lt;div&gt;&lt;font style=&quot;font-size: 20px;&quot;&gt;Phone / email&lt;/font&gt;&lt;/div&gt;" style="text;html=1;align=center;verticalAlign=middle;whiteSpace=wrap;rounded=0;fontColor=#FF0000;" parent="1" vertex="1">
          <mxGeometry x="1120" y="890" width="110" height="40" as="geometry" />
        </mxCell>
        <mxCell id="2vuc5O_I5Wunuj1L5ysl-119" value="&lt;span style=&quot;font-size: 20px;&quot;&gt;Multiple slide images&lt;/span&gt;" style="text;html=1;align=center;verticalAlign=middle;whiteSpace=wrap;rounded=0;fontColor=#FF0000;" parent="1" vertex="1">
          <mxGeometry x="1115" y="260" width="120" height="40" as="geometry" />
        </mxCell>
        <mxCell id="2vuc5O_I5Wunuj1L5ysl-120" value="&lt;font style=&quot;font-size: 14px;&quot;&gt;Intro title&lt;/font&gt;" style="text;html=1;align=center;verticalAlign=middle;whiteSpace=wrap;rounded=0;fontColor=#FF0000;" parent="1" vertex="1">
          <mxGeometry x="889" y="365" width="70" height="25" as="geometry" />
        </mxCell>
        <mxCell id="2vuc5O_I5Wunuj1L5ysl-121" value="&lt;font style=&quot;font-size: 14px;&quot;&gt;More info&lt;/font&gt;" style="text;html=1;align=center;verticalAlign=middle;whiteSpace=wrap;rounded=0;fontColor=#FF0000;" parent="1" vertex="1">
          <mxGeometry x="963" y="385" width="70" height="30" as="geometry" />
        </mxCell>
        <mxCell id="2vuc5O_I5Wunuj1L5ysl-122" value="&lt;span style=&quot;font-size: 20px;&quot;&gt;Company image&lt;/span&gt;" style="text;html=1;align=center;verticalAlign=middle;whiteSpace=wrap;rounded=0;fontColor=#FF0000;" parent="1" vertex="1">
          <mxGeometry x="473" y="440" width="120" height="40" as="geometry" />
        </mxCell>
        <mxCell id="2vuc5O_I5Wunuj1L5ysl-123" value="&lt;span style=&quot;font-size: 20px;&quot;&gt;Contact Form&lt;/span&gt;" style="text;html=1;align=center;verticalAlign=middle;whiteSpace=wrap;rounded=0;fontColor=#FF0000;" parent="1" vertex="1">
          <mxGeometry x="460" y="820" width="120" height="40" as="geometry" />
        </mxCell>
        <mxCell id="2vuc5O_I5Wunuj1L5ysl-124" value="" style="shape=message;html=1;html=1;outlineConnect=0;labelPosition=center;verticalLabelPosition=bottom;align=center;verticalAlign=top;" parent="1" vertex="1">
          <mxGeometry x="443" y="830" width="30" height="20" as="geometry" />
        </mxCell>
        <mxCell id="2vuc5O_I5Wunuj1L5ysl-125" value="&lt;font style=&quot;font-size: 14px;&quot;&gt;Sitemap&lt;/font&gt;" style="text;html=1;align=center;verticalAlign=middle;whiteSpace=wrap;rounded=0;fontColor=#FF0000;" parent="1" vertex="1">
          <mxGeometry x="755" y="920" width="120" height="40" as="geometry" />
        </mxCell>
        <mxCell id="2vuc5O_I5Wunuj1L5ysl-126" value="" style="endArrow=classic;html=1;rounded=0;exitX=1;exitY=0.5;exitDx=0;exitDy=0;" parent="1" source="2vuc5O_I5Wunuj1L5ysl-123" target="2vuc5O_I5Wunuj1L5ysl-92" edge="1">
          <mxGeometry width="50" height="50" relative="1" as="geometry">
            <mxPoint x="460" y="710" as="sourcePoint" />
            <mxPoint x="510" y="660" as="targetPoint" />
          </mxGeometry>
        </mxCell>
        <mxCell id="2vuc5O_I5Wunuj1L5ysl-127" value="" style="endArrow=classic;html=1;rounded=0;exitX=1;exitY=0.5;exitDx=0;exitDy=0;" parent="1" edge="1">
          <mxGeometry width="50" height="50" relative="1" as="geometry">
            <mxPoint x="580" y="450" as="sourcePoint" />
            <mxPoint x="640" y="450" as="targetPoint" />
          </mxGeometry>
        </mxCell>
        <mxCell id="2vuc5O_I5Wunuj1L5ysl-128" value="" style="endArrow=classic;html=1;rounded=0;entryX=1.003;entryY=0.675;entryDx=0;entryDy=0;entryPerimeter=0;exitX=0;exitY=0.5;exitDx=0;exitDy=0;" parent="1" source="2vuc5O_I5Wunuj1L5ysl-119" target="2vuc5O_I5Wunuj1L5ysl-13" edge="1">
          <mxGeometry width="50" height="50" relative="1" as="geometry">
            <mxPoint x="1390" y="190" as="sourcePoint" />
            <mxPoint x="1440" y="140" as="targetPoint" />
          </mxGeometry>
        </mxCell>
        <mxCell id="2vuc5O_I5Wunuj1L5ysl-129" value="" style="endArrow=classic;html=1;rounded=0;entryX=1.003;entryY=0.675;entryDx=0;entryDy=0;entryPerimeter=0;exitX=0;exitY=0.5;exitDx=0;exitDy=0;" parent="1" edge="1">
          <mxGeometry width="50" height="50" relative="1" as="geometry">
            <mxPoint x="1115" y="910" as="sourcePoint" />
            <mxPoint x="1041" y="912" as="targetPoint" />
          </mxGeometry>
        </mxCell>
        <mxCell id="2vuc5O_I5Wunuj1L5ysl-130" value="" style="rounded=0;whiteSpace=wrap;html=1;" parent="1" vertex="1">
          <mxGeometry x="1390" y="120" width="400" height="160" as="geometry" />
        </mxCell>
        <mxCell id="2vuc5O_I5Wunuj1L5ysl-131" value="&lt;font style=&quot;font-size: 30px;&quot;&gt;L&lt;/font&gt;" style="ellipse;whiteSpace=wrap;html=1;" parent="1" vertex="1">
          <mxGeometry x="1400" y="135" width="80" height="80" as="geometry" />
        </mxCell>
        <mxCell id="2vuc5O_I5Wunuj1L5ysl-132" value="" style="rounded=0;whiteSpace=wrap;html=1;" parent="1" vertex="1">
          <mxGeometry x="1490" y="160" width="290" height="30" as="geometry" />
        </mxCell>
        <mxCell id="2vuc5O_I5Wunuj1L5ysl-133" value="" style="rounded=0;whiteSpace=wrap;html=1;" parent="1" vertex="1">
          <mxGeometry x="1636" y="160" width="73" height="30" as="geometry" />
        </mxCell>
        <mxCell id="2vuc5O_I5Wunuj1L5ysl-134" value="" style="rounded=0;whiteSpace=wrap;html=1;" parent="1" vertex="1">
          <mxGeometry x="1563" y="160" width="73" height="30" as="geometry" />
        </mxCell>
        <mxCell id="2vuc5O_I5Wunuj1L5ysl-135" value="" style="rounded=1;whiteSpace=wrap;html=1;strokeWidth=2;fillWeight=4;hachureGap=8;hachureAngle=45;fillColor=#1ba1e2;sketch=1;" parent="1" vertex="1">
          <mxGeometry x="1490" y="160" width="73" height="30" as="geometry" />
        </mxCell>
        <mxCell id="2vuc5O_I5Wunuj1L5ysl-136" value="" style="endArrow=none;html=1;rounded=0;exitX=0;exitY=0.75;exitDx=0;exitDy=0;entryX=1;entryY=0.75;entryDx=0;entryDy=0;" parent="1" source="2vuc5O_I5Wunuj1L5ysl-130" target="2vuc5O_I5Wunuj1L5ysl-130" edge="1">
          <mxGeometry width="50" height="50" relative="1" as="geometry">
            <mxPoint x="1530" y="420" as="sourcePoint" />
            <mxPoint x="1580" y="370" as="targetPoint" />
          </mxGeometry>
        </mxCell>
        <mxCell id="2vuc5O_I5Wunuj1L5ysl-138" value="Title" style="text;strokeColor=none;fillColor=none;html=1;fontSize=24;fontStyle=1;verticalAlign=middle;align=center;" parent="1" vertex="1">
          <mxGeometry x="1400" y="240" width="100" height="40" as="geometry" />
        </mxCell>
        <mxCell id="2vuc5O_I5Wunuj1L5ysl-139" value="&lt;span style=&quot;font-size: 20px;&quot;&gt;Page title&lt;/span&gt;" style="text;html=1;align=center;verticalAlign=middle;whiteSpace=wrap;rounded=0;fontColor=#FF0000;" parent="1" vertex="1">
          <mxGeometry x="1529.75" y="240" width="120.5" height="40" as="geometry" />
        </mxCell>
        <mxCell id="2vuc5O_I5Wunuj1L5ysl-140" value="" style="endArrow=classic;html=1;rounded=0;exitX=0;exitY=0.5;exitDx=0;exitDy=0;entryX=1;entryY=0.5;entryDx=0;entryDy=0;" parent="1" source="2vuc5O_I5Wunuj1L5ysl-139" target="2vuc5O_I5Wunuj1L5ysl-138" edge="1">
          <mxGeometry width="50" height="50" relative="1" as="geometry">
            <mxPoint x="1510" y="380" as="sourcePoint" />
            <mxPoint x="1560" y="330" as="targetPoint" />
          </mxGeometry>
        </mxCell>
        <mxCell id="2vuc5O_I5Wunuj1L5ysl-141" value="" style="rounded=0;whiteSpace=wrap;html=1;" parent="1" vertex="1">
          <mxGeometry x="1390" y="280" width="400" height="200" as="geometry" />
        </mxCell>
        <mxCell id="2vuc5O_I5Wunuj1L5ysl-142" value="" style="rounded=0;whiteSpace=wrap;html=1;" parent="1" vertex="1">
          <mxGeometry x="1400" y="297.5" width="160" height="162.5" as="geometry" />
        </mxCell>
        <mxCell id="2vuc5O_I5Wunuj1L5ysl-143" value="" style="endArrow=none;html=1;rounded=0;exitX=0;exitY=1;exitDx=0;exitDy=0;entryX=1;entryY=0;entryDx=0;entryDy=0;" parent="1" source="2vuc5O_I5Wunuj1L5ysl-142" target="2vuc5O_I5Wunuj1L5ysl-142" edge="1">
          <mxGeometry width="50" height="50" relative="1" as="geometry">
            <mxPoint x="1560" y="600" as="sourcePoint" />
            <mxPoint x="1610" y="550" as="targetPoint" />
          </mxGeometry>
        </mxCell>
        <mxCell id="2vuc5O_I5Wunuj1L5ysl-144" value="" style="endArrow=none;html=1;rounded=0;exitX=0;exitY=0;exitDx=0;exitDy=0;entryX=1;entryY=1;entryDx=0;entryDy=0;" parent="1" source="2vuc5O_I5Wunuj1L5ysl-142" target="2vuc5O_I5Wunuj1L5ysl-142" edge="1">
          <mxGeometry width="50" height="50" relative="1" as="geometry">
            <mxPoint x="1600" y="580" as="sourcePoint" />
            <mxPoint x="1650" y="530" as="targetPoint" />
          </mxGeometry>
        </mxCell>
        <mxCell id="2vuc5O_I5Wunuj1L5ysl-145" value="Title" style="text;strokeColor=none;fillColor=none;html=1;fontSize=24;fontStyle=1;verticalAlign=middle;align=left;" parent="1" vertex="1">
          <mxGeometry x="1594.5" y="300" width="100" height="40" as="geometry" />
        </mxCell>
        <mxCell id="2vuc5O_I5Wunuj1L5ysl-150" value="" style="rounded=0;whiteSpace=wrap;html=1;" parent="1" vertex="1">
          <mxGeometry x="1594.5" y="355" width="10" height="10" as="geometry" />
        </mxCell>
        <mxCell id="2vuc5O_I5Wunuj1L5ysl-151" value="" style="endArrow=none;html=1;rounded=0;exitX=0;exitY=1;exitDx=0;exitDy=0;entryX=1;entryY=0;entryDx=0;entryDy=0;" parent="1" source="2vuc5O_I5Wunuj1L5ysl-150" target="2vuc5O_I5Wunuj1L5ysl-150" edge="1">
          <mxGeometry width="50" height="50" relative="1" as="geometry">
            <mxPoint x="1604.5" y="395" as="sourcePoint" />
            <mxPoint x="1654.5" y="345" as="targetPoint" />
          </mxGeometry>
        </mxCell>
        <mxCell id="2vuc5O_I5Wunuj1L5ysl-152" value="" style="endArrow=none;html=1;rounded=0;exitX=0;exitY=0;exitDx=0;exitDy=0;entryX=1;entryY=1;entryDx=0;entryDy=0;" parent="1" source="2vuc5O_I5Wunuj1L5ysl-150" target="2vuc5O_I5Wunuj1L5ysl-150" edge="1">
          <mxGeometry width="50" height="50" relative="1" as="geometry">
            <mxPoint x="1604.5" y="385" as="sourcePoint" />
            <mxPoint x="1654.5" y="335" as="targetPoint" />
          </mxGeometry>
        </mxCell>
        <mxCell id="2vuc5O_I5Wunuj1L5ysl-154" value="" style="rounded=0;whiteSpace=wrap;html=1;" parent="1" vertex="1">
          <mxGeometry x="1620" y="352.5" width="120" height="15" as="geometry" />
        </mxCell>
        <mxCell id="2vuc5O_I5Wunuj1L5ysl-155" value="" style="rounded=0;whiteSpace=wrap;html=1;" parent="1" vertex="1">
          <mxGeometry x="1594.5" y="382.5" width="10" height="10" as="geometry" />
        </mxCell>
        <mxCell id="2vuc5O_I5Wunuj1L5ysl-156" value="" style="endArrow=none;html=1;rounded=0;exitX=0;exitY=1;exitDx=0;exitDy=0;entryX=1;entryY=0;entryDx=0;entryDy=0;" parent="1" source="2vuc5O_I5Wunuj1L5ysl-155" target="2vuc5O_I5Wunuj1L5ysl-155" edge="1">
          <mxGeometry width="50" height="50" relative="1" as="geometry">
            <mxPoint x="1604.5" y="422.5" as="sourcePoint" />
            <mxPoint x="1654.5" y="372.5" as="targetPoint" />
          </mxGeometry>
        </mxCell>
        <mxCell id="2vuc5O_I5Wunuj1L5ysl-157" value="" style="endArrow=none;html=1;rounded=0;exitX=0;exitY=0;exitDx=0;exitDy=0;entryX=1;entryY=1;entryDx=0;entryDy=0;" parent="1" source="2vuc5O_I5Wunuj1L5ysl-155" target="2vuc5O_I5Wunuj1L5ysl-155" edge="1">
          <mxGeometry width="50" height="50" relative="1" as="geometry">
            <mxPoint x="1604.5" y="412.5" as="sourcePoint" />
            <mxPoint x="1654.5" y="362.5" as="targetPoint" />
          </mxGeometry>
        </mxCell>
        <mxCell id="2vuc5O_I5Wunuj1L5ysl-158" value="" style="rounded=0;whiteSpace=wrap;html=1;" parent="1" vertex="1">
          <mxGeometry x="1620" y="380" width="120" height="15" as="geometry" />
        </mxCell>
        <mxCell id="2vuc5O_I5Wunuj1L5ysl-159" value="" style="rounded=0;whiteSpace=wrap;html=1;" parent="1" vertex="1">
          <mxGeometry x="1594.5" y="407.5" width="10" height="10" as="geometry" />
        </mxCell>
        <mxCell id="2vuc5O_I5Wunuj1L5ysl-160" value="" style="endArrow=none;html=1;rounded=0;exitX=0;exitY=1;exitDx=0;exitDy=0;entryX=1;entryY=0;entryDx=0;entryDy=0;" parent="1" source="2vuc5O_I5Wunuj1L5ysl-159" target="2vuc5O_I5Wunuj1L5ysl-159" edge="1">
          <mxGeometry width="50" height="50" relative="1" as="geometry">
            <mxPoint x="1604.5" y="447.5" as="sourcePoint" />
            <mxPoint x="1654.5" y="397.5" as="targetPoint" />
          </mxGeometry>
        </mxCell>
        <mxCell id="2vuc5O_I5Wunuj1L5ysl-161" value="" style="endArrow=none;html=1;rounded=0;exitX=0;exitY=0;exitDx=0;exitDy=0;entryX=1;entryY=1;entryDx=0;entryDy=0;" parent="1" source="2vuc5O_I5Wunuj1L5ysl-159" target="2vuc5O_I5Wunuj1L5ysl-159" edge="1">
          <mxGeometry width="50" height="50" relative="1" as="geometry">
            <mxPoint x="1604.5" y="437.5" as="sourcePoint" />
            <mxPoint x="1654.5" y="387.5" as="targetPoint" />
          </mxGeometry>
        </mxCell>
        <mxCell id="2vuc5O_I5Wunuj1L5ysl-162" value="" style="rounded=0;whiteSpace=wrap;html=1;" parent="1" vertex="1">
          <mxGeometry x="1620" y="405" width="120" height="15" as="geometry" />
        </mxCell>
        <mxCell id="2vuc5O_I5Wunuj1L5ysl-163" value="" style="rounded=0;whiteSpace=wrap;html=1;" parent="1" vertex="1">
          <mxGeometry x="1390" y="480" width="400" height="200" as="geometry" />
        </mxCell>
        <mxCell id="2vuc5O_I5Wunuj1L5ysl-164" value="" style="rounded=0;whiteSpace=wrap;html=1;" parent="1" vertex="1">
          <mxGeometry x="1407.25" y="557.5" width="10" height="10" as="geometry" />
        </mxCell>
        <mxCell id="2vuc5O_I5Wunuj1L5ysl-165" value="" style="endArrow=none;html=1;rounded=0;exitX=0;exitY=1;exitDx=0;exitDy=0;entryX=1;entryY=0;entryDx=0;entryDy=0;" parent="1" source="2vuc5O_I5Wunuj1L5ysl-164" target="2vuc5O_I5Wunuj1L5ysl-164" edge="1">
          <mxGeometry width="50" height="50" relative="1" as="geometry">
            <mxPoint x="1417.25" y="597.5" as="sourcePoint" />
            <mxPoint x="1467.25" y="547.5" as="targetPoint" />
          </mxGeometry>
        </mxCell>
        <mxCell id="2vuc5O_I5Wunuj1L5ysl-166" value="" style="endArrow=none;html=1;rounded=0;exitX=0;exitY=0;exitDx=0;exitDy=0;entryX=1;entryY=1;entryDx=0;entryDy=0;" parent="1" source="2vuc5O_I5Wunuj1L5ysl-164" target="2vuc5O_I5Wunuj1L5ysl-164" edge="1">
          <mxGeometry width="50" height="50" relative="1" as="geometry">
            <mxPoint x="1417.25" y="587.5" as="sourcePoint" />
            <mxPoint x="1467.25" y="537.5" as="targetPoint" />
          </mxGeometry>
        </mxCell>
        <mxCell id="2vuc5O_I5Wunuj1L5ysl-167" value="" style="rounded=0;whiteSpace=wrap;html=1;" parent="1" vertex="1">
          <mxGeometry x="1432.75" y="555" width="120" height="15" as="geometry" />
        </mxCell>
        <mxCell id="2vuc5O_I5Wunuj1L5ysl-168" value="" style="rounded=0;whiteSpace=wrap;html=1;" parent="1" vertex="1">
          <mxGeometry x="1407.25" y="585" width="10" height="10" as="geometry" />
        </mxCell>
        <mxCell id="2vuc5O_I5Wunuj1L5ysl-169" value="" style="endArrow=none;html=1;rounded=0;exitX=0;exitY=1;exitDx=0;exitDy=0;entryX=1;entryY=0;entryDx=0;entryDy=0;" parent="1" source="2vuc5O_I5Wunuj1L5ysl-168" target="2vuc5O_I5Wunuj1L5ysl-168" edge="1">
          <mxGeometry width="50" height="50" relative="1" as="geometry">
            <mxPoint x="1417.25" y="625" as="sourcePoint" />
            <mxPoint x="1467.25" y="575" as="targetPoint" />
          </mxGeometry>
        </mxCell>
        <mxCell id="2vuc5O_I5Wunuj1L5ysl-170" value="" style="endArrow=none;html=1;rounded=0;exitX=0;exitY=0;exitDx=0;exitDy=0;entryX=1;entryY=1;entryDx=0;entryDy=0;" parent="1" source="2vuc5O_I5Wunuj1L5ysl-168" target="2vuc5O_I5Wunuj1L5ysl-168" edge="1">
          <mxGeometry width="50" height="50" relative="1" as="geometry">
            <mxPoint x="1417.25" y="615" as="sourcePoint" />
            <mxPoint x="1467.25" y="565" as="targetPoint" />
          </mxGeometry>
        </mxCell>
        <mxCell id="2vuc5O_I5Wunuj1L5ysl-171" value="" style="rounded=0;whiteSpace=wrap;html=1;" parent="1" vertex="1">
          <mxGeometry x="1432.75" y="582.5" width="120" height="15" as="geometry" />
        </mxCell>
        <mxCell id="2vuc5O_I5Wunuj1L5ysl-172" value="" style="rounded=0;whiteSpace=wrap;html=1;" parent="1" vertex="1">
          <mxGeometry x="1407.25" y="610" width="10" height="10" as="geometry" />
        </mxCell>
        <mxCell id="2vuc5O_I5Wunuj1L5ysl-173" value="" style="endArrow=none;html=1;rounded=0;exitX=0;exitY=1;exitDx=0;exitDy=0;entryX=1;entryY=0;entryDx=0;entryDy=0;" parent="1" source="2vuc5O_I5Wunuj1L5ysl-172" target="2vuc5O_I5Wunuj1L5ysl-172" edge="1">
          <mxGeometry width="50" height="50" relative="1" as="geometry">
            <mxPoint x="1417.25" y="650" as="sourcePoint" />
            <mxPoint x="1467.25" y="600" as="targetPoint" />
          </mxGeometry>
        </mxCell>
        <mxCell id="2vuc5O_I5Wunuj1L5ysl-174" value="" style="endArrow=none;html=1;rounded=0;exitX=0;exitY=0;exitDx=0;exitDy=0;entryX=1;entryY=1;entryDx=0;entryDy=0;" parent="1" source="2vuc5O_I5Wunuj1L5ysl-172" target="2vuc5O_I5Wunuj1L5ysl-172" edge="1">
          <mxGeometry width="50" height="50" relative="1" as="geometry">
            <mxPoint x="1417.25" y="640" as="sourcePoint" />
            <mxPoint x="1467.25" y="590" as="targetPoint" />
          </mxGeometry>
        </mxCell>
        <mxCell id="2vuc5O_I5Wunuj1L5ysl-175" value="" style="rounded=0;whiteSpace=wrap;html=1;" parent="1" vertex="1">
          <mxGeometry x="1432.75" y="607.5" width="120" height="15" as="geometry" />
        </mxCell>
        <mxCell id="2vuc5O_I5Wunuj1L5ysl-176" value="Title" style="text;strokeColor=none;fillColor=none;html=1;fontSize=24;fontStyle=1;verticalAlign=middle;align=left;" parent="1" vertex="1">
          <mxGeometry x="1407.25" y="493.75" width="100" height="40" as="geometry" />
        </mxCell>
        <mxCell id="2vuc5O_I5Wunuj1L5ysl-177" value="" style="rounded=0;whiteSpace=wrap;html=1;" parent="1" vertex="1">
          <mxGeometry x="1620" y="498.75" width="160" height="162.5" as="geometry" />
        </mxCell>
        <mxCell id="2vuc5O_I5Wunuj1L5ysl-178" value="" style="endArrow=none;html=1;rounded=0;exitX=0;exitY=1;exitDx=0;exitDy=0;entryX=1;entryY=0;entryDx=0;entryDy=0;" parent="1" source="2vuc5O_I5Wunuj1L5ysl-177" target="2vuc5O_I5Wunuj1L5ysl-177" edge="1">
          <mxGeometry width="50" height="50" relative="1" as="geometry">
            <mxPoint x="1780" y="801.25" as="sourcePoint" />
            <mxPoint x="1830" y="751.25" as="targetPoint" />
          </mxGeometry>
        </mxCell>
        <mxCell id="2vuc5O_I5Wunuj1L5ysl-179" value="" style="endArrow=none;html=1;rounded=0;exitX=0;exitY=0;exitDx=0;exitDy=0;entryX=1;entryY=1;entryDx=0;entryDy=0;" parent="1" source="2vuc5O_I5Wunuj1L5ysl-177" target="2vuc5O_I5Wunuj1L5ysl-177" edge="1">
          <mxGeometry width="50" height="50" relative="1" as="geometry">
            <mxPoint x="1820" y="781.25" as="sourcePoint" />
            <mxPoint x="1870" y="731.25" as="targetPoint" />
          </mxGeometry>
        </mxCell>
        <mxCell id="2vuc5O_I5Wunuj1L5ysl-180" value="" style="rounded=0;whiteSpace=wrap;html=1;" parent="1" vertex="1">
          <mxGeometry x="1390" y="680" width="400" height="200" as="geometry" />
        </mxCell>
        <mxCell id="2vuc5O_I5Wunuj1L5ysl-181" value="" style="rounded=0;whiteSpace=wrap;html=1;" parent="1" vertex="1">
          <mxGeometry x="1400" y="697.5" width="160" height="162.5" as="geometry" />
        </mxCell>
        <mxCell id="2vuc5O_I5Wunuj1L5ysl-182" value="" style="endArrow=none;html=1;rounded=0;exitX=0;exitY=1;exitDx=0;exitDy=0;entryX=1;entryY=0;entryDx=0;entryDy=0;" parent="1" source="2vuc5O_I5Wunuj1L5ysl-181" target="2vuc5O_I5Wunuj1L5ysl-181" edge="1">
          <mxGeometry width="50" height="50" relative="1" as="geometry">
            <mxPoint x="1560" y="1000" as="sourcePoint" />
            <mxPoint x="1610" y="950" as="targetPoint" />
          </mxGeometry>
        </mxCell>
        <mxCell id="2vuc5O_I5Wunuj1L5ysl-183" value="" style="endArrow=none;html=1;rounded=0;exitX=0;exitY=0;exitDx=0;exitDy=0;entryX=1;entryY=1;entryDx=0;entryDy=0;" parent="1" source="2vuc5O_I5Wunuj1L5ysl-181" target="2vuc5O_I5Wunuj1L5ysl-181" edge="1">
          <mxGeometry width="50" height="50" relative="1" as="geometry">
            <mxPoint x="1600" y="980" as="sourcePoint" />
            <mxPoint x="1650" y="930" as="targetPoint" />
          </mxGeometry>
        </mxCell>
        <mxCell id="2vuc5O_I5Wunuj1L5ysl-184" value="" style="rounded=0;whiteSpace=wrap;html=1;" parent="1" vertex="1">
          <mxGeometry x="1594.5" y="779.38" width="10" height="10" as="geometry" />
        </mxCell>
        <mxCell id="2vuc5O_I5Wunuj1L5ysl-185" value="" style="endArrow=none;html=1;rounded=0;exitX=0;exitY=1;exitDx=0;exitDy=0;entryX=1;entryY=0;entryDx=0;entryDy=0;" parent="1" source="2vuc5O_I5Wunuj1L5ysl-184" target="2vuc5O_I5Wunuj1L5ysl-184" edge="1">
          <mxGeometry width="50" height="50" relative="1" as="geometry">
            <mxPoint x="1604.5" y="819.38" as="sourcePoint" />
            <mxPoint x="1654.5" y="769.38" as="targetPoint" />
          </mxGeometry>
        </mxCell>
        <mxCell id="2vuc5O_I5Wunuj1L5ysl-186" value="" style="endArrow=none;html=1;rounded=0;exitX=0;exitY=0;exitDx=0;exitDy=0;entryX=1;entryY=1;entryDx=0;entryDy=0;" parent="1" source="2vuc5O_I5Wunuj1L5ysl-184" target="2vuc5O_I5Wunuj1L5ysl-184" edge="1">
          <mxGeometry width="50" height="50" relative="1" as="geometry">
            <mxPoint x="1604.5" y="809.38" as="sourcePoint" />
            <mxPoint x="1654.5" y="759.38" as="targetPoint" />
          </mxGeometry>
        </mxCell>
        <mxCell id="2vuc5O_I5Wunuj1L5ysl-187" value="" style="rounded=0;whiteSpace=wrap;html=1;" parent="1" vertex="1">
          <mxGeometry x="1620" y="776.88" width="120" height="15" as="geometry" />
        </mxCell>
        <mxCell id="2vuc5O_I5Wunuj1L5ysl-188" value="" style="rounded=0;whiteSpace=wrap;html=1;" parent="1" vertex="1">
          <mxGeometry x="1594.5" y="806.88" width="10" height="10" as="geometry" />
        </mxCell>
        <mxCell id="2vuc5O_I5Wunuj1L5ysl-189" value="" style="endArrow=none;html=1;rounded=0;exitX=0;exitY=1;exitDx=0;exitDy=0;entryX=1;entryY=0;entryDx=0;entryDy=0;" parent="1" source="2vuc5O_I5Wunuj1L5ysl-188" target="2vuc5O_I5Wunuj1L5ysl-188" edge="1">
          <mxGeometry width="50" height="50" relative="1" as="geometry">
            <mxPoint x="1604.5" y="846.88" as="sourcePoint" />
            <mxPoint x="1654.5" y="796.88" as="targetPoint" />
          </mxGeometry>
        </mxCell>
        <mxCell id="2vuc5O_I5Wunuj1L5ysl-190" value="" style="endArrow=none;html=1;rounded=0;exitX=0;exitY=0;exitDx=0;exitDy=0;entryX=1;entryY=1;entryDx=0;entryDy=0;" parent="1" source="2vuc5O_I5Wunuj1L5ysl-188" target="2vuc5O_I5Wunuj1L5ysl-188" edge="1">
          <mxGeometry width="50" height="50" relative="1" as="geometry">
            <mxPoint x="1604.5" y="836.88" as="sourcePoint" />
            <mxPoint x="1654.5" y="786.88" as="targetPoint" />
          </mxGeometry>
        </mxCell>
        <mxCell id="2vuc5O_I5Wunuj1L5ysl-191" value="" style="rounded=0;whiteSpace=wrap;html=1;" parent="1" vertex="1">
          <mxGeometry x="1620" y="804.38" width="120" height="15" as="geometry" />
        </mxCell>
        <mxCell id="2vuc5O_I5Wunuj1L5ysl-192" value="" style="rounded=0;whiteSpace=wrap;html=1;" parent="1" vertex="1">
          <mxGeometry x="1594.5" y="831.88" width="10" height="10" as="geometry" />
        </mxCell>
        <mxCell id="2vuc5O_I5Wunuj1L5ysl-193" value="" style="endArrow=none;html=1;rounded=0;exitX=0;exitY=1;exitDx=0;exitDy=0;entryX=1;entryY=0;entryDx=0;entryDy=0;" parent="1" source="2vuc5O_I5Wunuj1L5ysl-192" target="2vuc5O_I5Wunuj1L5ysl-192" edge="1">
          <mxGeometry width="50" height="50" relative="1" as="geometry">
            <mxPoint x="1604.5" y="871.88" as="sourcePoint" />
            <mxPoint x="1654.5" y="821.88" as="targetPoint" />
          </mxGeometry>
        </mxCell>
        <mxCell id="2vuc5O_I5Wunuj1L5ysl-194" value="" style="endArrow=none;html=1;rounded=0;exitX=0;exitY=0;exitDx=0;exitDy=0;entryX=1;entryY=1;entryDx=0;entryDy=0;" parent="1" source="2vuc5O_I5Wunuj1L5ysl-192" target="2vuc5O_I5Wunuj1L5ysl-192" edge="1">
          <mxGeometry width="50" height="50" relative="1" as="geometry">
            <mxPoint x="1604.5" y="861.88" as="sourcePoint" />
            <mxPoint x="1654.5" y="811.88" as="targetPoint" />
          </mxGeometry>
        </mxCell>
        <mxCell id="2vuc5O_I5Wunuj1L5ysl-195" value="" style="rounded=0;whiteSpace=wrap;html=1;" parent="1" vertex="1">
          <mxGeometry x="1620" y="829.38" width="120" height="15" as="geometry" />
        </mxCell>
        <mxCell id="2vuc5O_I5Wunuj1L5ysl-196" value="Title" style="text;strokeColor=none;fillColor=none;html=1;fontSize=24;fontStyle=1;verticalAlign=middle;align=left;" parent="1" vertex="1">
          <mxGeometry x="1594.5" y="715.63" width="100" height="40" as="geometry" />
        </mxCell>
        <mxCell id="2vuc5O_I5Wunuj1L5ysl-197" value="&lt;font style=&quot;font-size: 24px;&quot;&gt;Features page&lt;/font&gt;" style="text;html=1;align=center;verticalAlign=middle;whiteSpace=wrap;rounded=0;fontStyle=4" parent="1" vertex="1">
          <mxGeometry x="1360" y="70" width="220" height="30" as="geometry" />
        </mxCell>
        <mxCell id="2vuc5O_I5Wunuj1L5ysl-198" value="&lt;span style=&quot;font-size: 20px;&quot;&gt;Feature #1&lt;/span&gt;" style="text;html=1;align=center;verticalAlign=middle;whiteSpace=wrap;rounded=0;fontColor=#FF0000;" parent="1" vertex="1">
          <mxGeometry x="1870" y="310" width="120" height="40" as="geometry" />
        </mxCell>
        <mxCell id="2vuc5O_I5Wunuj1L5ysl-199" value="&lt;span style=&quot;font-size: 20px;&quot;&gt;Feature #2&lt;/span&gt;" style="text;html=1;align=center;verticalAlign=middle;whiteSpace=wrap;rounded=0;fontColor=#FF0000;" parent="1" vertex="1">
          <mxGeometry x="1870" y="545" width="120" height="40" as="geometry" />
        </mxCell>
        <mxCell id="2vuc5O_I5Wunuj1L5ysl-200" value="&lt;span style=&quot;font-size: 20px;&quot;&gt;Feature #3&lt;/span&gt;" style="text;html=1;align=center;verticalAlign=middle;whiteSpace=wrap;rounded=0;fontColor=#FF0000;" parent="1" vertex="1">
          <mxGeometry x="1870" y="766.88" width="120" height="40" as="geometry" />
        </mxCell>
        <mxCell id="2vuc5O_I5Wunuj1L5ysl-201" value="" style="endArrow=classic;html=1;rounded=0;entryX=1.003;entryY=0.675;entryDx=0;entryDy=0;entryPerimeter=0;exitX=0;exitY=0.5;exitDx=0;exitDy=0;" parent="1" edge="1">
          <mxGeometry width="50" height="50" relative="1" as="geometry">
            <mxPoint x="1870" y="329" as="sourcePoint" />
            <mxPoint x="1796" y="331" as="targetPoint" />
          </mxGeometry>
        </mxCell>
        <mxCell id="2vuc5O_I5Wunuj1L5ysl-202" value="" style="endArrow=classic;html=1;rounded=0;entryX=1.003;entryY=0.675;entryDx=0;entryDy=0;entryPerimeter=0;exitX=0;exitY=0.5;exitDx=0;exitDy=0;" parent="1" edge="1">
          <mxGeometry width="50" height="50" relative="1" as="geometry">
            <mxPoint x="1870" y="567.5" as="sourcePoint" />
            <mxPoint x="1796" y="569.5" as="targetPoint" />
          </mxGeometry>
        </mxCell>
        <mxCell id="2vuc5O_I5Wunuj1L5ysl-203" value="" style="endArrow=classic;html=1;rounded=0;entryX=1.003;entryY=0.675;entryDx=0;entryDy=0;entryPerimeter=0;exitX=0;exitY=0.5;exitDx=0;exitDy=0;" parent="1" edge="1">
          <mxGeometry width="50" height="50" relative="1" as="geometry">
            <mxPoint x="1870" y="785.88" as="sourcePoint" />
            <mxPoint x="1796" y="787.88" as="targetPoint" />
          </mxGeometry>
        </mxCell>
        <mxCell id="2vuc5O_I5Wunuj1L5ysl-204" value="" style="rounded=0;whiteSpace=wrap;html=1;" parent="1" vertex="1">
          <mxGeometry x="640" y="960" width="400" height="30" as="geometry" />
        </mxCell>
        <mxCell id="2vuc5O_I5Wunuj1L5ysl-205" value="" style="rounded=0;whiteSpace=wrap;html=1;" parent="1" vertex="1">
          <mxGeometry x="655" y="970" width="100" height="10" as="geometry" />
        </mxCell>
        <mxCell id="2vuc5O_I5Wunuj1L5ysl-206" value="&lt;span style=&quot;font-size: 20px;&quot;&gt;Copyright&lt;/span&gt;" style="text;html=1;align=center;verticalAlign=middle;whiteSpace=wrap;rounded=0;fontColor=#FF0000;" parent="1" vertex="1">
          <mxGeometry x="640" y="1060" width="120" height="40" as="geometry" />
        </mxCell>
        <mxCell id="2vuc5O_I5Wunuj1L5ysl-207" value="" style="endArrow=classic;html=1;rounded=0;entryX=0.148;entryY=0.933;entryDx=0;entryDy=0;entryPerimeter=0;" parent="1" target="2vuc5O_I5Wunuj1L5ysl-204" edge="1">
          <mxGeometry width="50" height="50" relative="1" as="geometry">
            <mxPoint x="699" y="1060" as="sourcePoint" />
            <mxPoint x="821.5" y="1102" as="targetPoint" />
          </mxGeometry>
        </mxCell>
        <mxCell id="2vuc5O_I5Wunuj1L5ysl-208" value="" style="rounded=0;whiteSpace=wrap;html=1;" parent="1" vertex="1">
          <mxGeometry x="1390" y="880" width="400" height="240" as="geometry" />
        </mxCell>
        <mxCell id="2vuc5O_I5Wunuj1L5ysl-209" value="Title" style="text;strokeColor=none;fillColor=none;html=1;fontSize=24;fontStyle=1;verticalAlign=middle;align=left;" parent="1" vertex="1">
          <mxGeometry x="1410" y="900" width="100" height="50" as="geometry" />
        </mxCell>
        <mxCell id="2vuc5O_I5Wunuj1L5ysl-210" value="" style="rounded=0;whiteSpace=wrap;html=1;" parent="1" vertex="1">
          <mxGeometry x="1410" y="950" width="90" height="10" as="geometry" />
        </mxCell>
        <mxCell id="2vuc5O_I5Wunuj1L5ysl-211" value="" style="rounded=0;whiteSpace=wrap;html=1;" parent="1" vertex="1">
          <mxGeometry x="1410" y="970" width="90" height="10" as="geometry" />
        </mxCell>
        <mxCell id="2vuc5O_I5Wunuj1L5ysl-212" value="" style="rounded=0;whiteSpace=wrap;html=1;" parent="1" vertex="1">
          <mxGeometry x="1410" y="990" width="90" height="50" as="geometry" />
        </mxCell>
        <mxCell id="2vuc5O_I5Wunuj1L5ysl-213" value="Button" style="rounded=1;fillColor=#0057D8;strokeColor=none;html=1;whiteSpace=wrap;fontColor=#ffffff;align=center;verticalAlign=middle;fontStyle=0;fontSize=12;sketch=0;" parent="1" vertex="1">
          <mxGeometry x="1410" y="1050" width="63" height="30" as="geometry" />
        </mxCell>
        <mxCell id="2vuc5O_I5Wunuj1L5ysl-214" value="Title" style="text;strokeColor=none;fillColor=none;html=1;fontSize=24;fontStyle=1;verticalAlign=middle;align=left;" parent="1" vertex="1">
          <mxGeometry x="1523" y="900" width="100" height="50" as="geometry" />
        </mxCell>
        <mxCell id="2vuc5O_I5Wunuj1L5ysl-215" value="Lorem ipsum dolor sit amet, consectetur adipisicing elit, sed do eiusmod tempor incididunt ut labore et dolore magna&amp;nbsp;" style="text;spacingTop=-5;whiteSpace=wrap;html=1;align=left;fontSize=12;fontFamily=Helvetica;fillColor=none;strokeColor=none;" parent="1" vertex="1">
          <mxGeometry x="1526" y="945" width="107" height="110" as="geometry" />
        </mxCell>
        <mxCell id="2vuc5O_I5Wunuj1L5ysl-216" value="&lt;font style=&quot;font-size: 30px;&quot;&gt;L&lt;/font&gt;" style="ellipse;whiteSpace=wrap;html=1;" parent="1" vertex="1">
          <mxGeometry x="1673" y="905" width="40" height="40" as="geometry" />
        </mxCell>
        <mxCell id="2vuc5O_I5Wunuj1L5ysl-217" value="" style="rounded=0;whiteSpace=wrap;html=1;" parent="1" vertex="1">
          <mxGeometry x="1673" y="960" width="10" height="10" as="geometry" />
        </mxCell>
        <mxCell id="2vuc5O_I5Wunuj1L5ysl-218" value="" style="endArrow=none;html=1;rounded=0;exitX=0;exitY=1;exitDx=0;exitDy=0;entryX=1;entryY=0;entryDx=0;entryDy=0;" parent="1" source="2vuc5O_I5Wunuj1L5ysl-217" target="2vuc5O_I5Wunuj1L5ysl-217" edge="1">
          <mxGeometry width="50" height="50" relative="1" as="geometry">
            <mxPoint x="1683" y="1000" as="sourcePoint" />
            <mxPoint x="1733" y="950" as="targetPoint" />
          </mxGeometry>
        </mxCell>
        <mxCell id="2vuc5O_I5Wunuj1L5ysl-219" value="" style="endArrow=none;html=1;rounded=0;exitX=0;exitY=0;exitDx=0;exitDy=0;entryX=1;entryY=1;entryDx=0;entryDy=0;" parent="1" source="2vuc5O_I5Wunuj1L5ysl-217" target="2vuc5O_I5Wunuj1L5ysl-217" edge="1">
          <mxGeometry width="50" height="50" relative="1" as="geometry">
            <mxPoint x="1693" y="1010" as="sourcePoint" />
            <mxPoint x="1743" y="960" as="targetPoint" />
          </mxGeometry>
        </mxCell>
        <mxCell id="2vuc5O_I5Wunuj1L5ysl-220" value="" style="rounded=0;whiteSpace=wrap;html=1;" parent="1" vertex="1">
          <mxGeometry x="1673" y="990" width="10" height="10" as="geometry" />
        </mxCell>
        <mxCell id="2vuc5O_I5Wunuj1L5ysl-221" value="" style="endArrow=none;html=1;rounded=0;exitX=0;exitY=1;exitDx=0;exitDy=0;entryX=1;entryY=0;entryDx=0;entryDy=0;" parent="1" source="2vuc5O_I5Wunuj1L5ysl-220" target="2vuc5O_I5Wunuj1L5ysl-220" edge="1">
          <mxGeometry width="50" height="50" relative="1" as="geometry">
            <mxPoint x="1683" y="1030" as="sourcePoint" />
            <mxPoint x="1733" y="980" as="targetPoint" />
          </mxGeometry>
        </mxCell>
        <mxCell id="2vuc5O_I5Wunuj1L5ysl-222" value="" style="endArrow=none;html=1;rounded=0;exitX=0;exitY=0;exitDx=0;exitDy=0;entryX=1;entryY=1;entryDx=0;entryDy=0;" parent="1" source="2vuc5O_I5Wunuj1L5ysl-220" target="2vuc5O_I5Wunuj1L5ysl-220" edge="1">
          <mxGeometry width="50" height="50" relative="1" as="geometry">
            <mxPoint x="1693" y="1040" as="sourcePoint" />
            <mxPoint x="1743" y="990" as="targetPoint" />
          </mxGeometry>
        </mxCell>
        <mxCell id="2vuc5O_I5Wunuj1L5ysl-223" value="" style="rounded=0;whiteSpace=wrap;html=1;" parent="1" vertex="1">
          <mxGeometry x="1690" y="960" width="90" height="10" as="geometry" />
        </mxCell>
        <mxCell id="2vuc5O_I5Wunuj1L5ysl-224" value="" style="rounded=0;whiteSpace=wrap;html=1;" parent="1" vertex="1">
          <mxGeometry x="1690" y="990" width="90" height="10" as="geometry" />
        </mxCell>
        <mxCell id="2vuc5O_I5Wunuj1L5ysl-225" value="Lorem ipsum dolor sit amet, consectetur adipisicing elit, sed" style="text;spacingTop=-5;whiteSpace=wrap;html=1;align=left;fontSize=12;fontFamily=Helvetica;fillColor=none;strokeColor=none;" parent="1" vertex="1">
          <mxGeometry x="1673" y="1010" width="107" height="60" as="geometry" />
        </mxCell>
        <mxCell id="2vuc5O_I5Wunuj1L5ysl-227" value="" style="rounded=0;whiteSpace=wrap;html=1;" parent="1" vertex="1">
          <mxGeometry x="1390" y="1120" width="400" height="30" as="geometry" />
        </mxCell>
        <mxCell id="2vuc5O_I5Wunuj1L5ysl-228" value="" style="rounded=0;whiteSpace=wrap;html=1;" parent="1" vertex="1">
          <mxGeometry x="1410" y="1130" width="100" height="10" as="geometry" />
        </mxCell>
        <mxCell id="2vuc5O_I5Wunuj1L5ysl-229" value="" style="shape=flexArrow;endArrow=classic;html=1;rounded=0;fontColor=#CC0000;labelBorderColor=#FF0000;fillColor=#f8cecc;strokeColor=#b85450;entryX=0;entryY=0.302;entryDx=0;entryDy=0;entryPerimeter=0;" parent="1" target="2vuc5O_I5Wunuj1L5ysl-163" edge="1">
          <mxGeometry width="50" height="50" relative="1" as="geometry">
            <mxPoint x="908" y="539.52" as="sourcePoint" />
            <mxPoint x="978" y="539.52" as="targetPoint" />
          </mxGeometry>
        </mxCell>
        <mxCell id="2vuc5O_I5Wunuj1L5ysl-231" value="" style="shape=flexArrow;endArrow=classic;html=1;rounded=0;fontColor=#CC0000;labelBorderColor=#FF0000;fillColor=#f8cecc;strokeColor=#b85450;entryX=0;entryY=0;entryDx=0;entryDy=0;exitX=0.5;exitY=0;exitDx=0;exitDy=0;" parent="1" source="2vuc5O_I5Wunuj1L5ysl-32" target="2vuc5O_I5Wunuj1L5ysl-130" edge="1">
          <mxGeometry width="50" height="50" relative="1" as="geometry">
            <mxPoint x="1040" y="120" as="sourcePoint" />
            <mxPoint x="1500" y="10.480000000000018" as="targetPoint" />
            <Array as="points">
              <mxPoint x="1020" y="20" />
              <mxPoint x="1060" y="-10" />
              <mxPoint x="1100" y="-30" />
              <mxPoint x="1170" y="-40" />
              <mxPoint x="1240" y="-40" />
              <mxPoint x="1300" y="-30" />
              <mxPoint x="1340" />
            </Array>
          </mxGeometry>
        </mxCell>
        <mxCell id="2vuc5O_I5Wunuj1L5ysl-232" value="&lt;font style=&quot;font-size: 24px;&quot;&gt;Contact page&lt;/font&gt;" style="text;html=1;align=center;verticalAlign=middle;whiteSpace=wrap;rounded=0;fontStyle=4" parent="1" vertex="1">
          <mxGeometry x="2100" y="70" width="220" height="30" as="geometry" />
        </mxCell>
        <mxCell id="2vuc5O_I5Wunuj1L5ysl-251" value="" style="rounded=0;whiteSpace=wrap;html=1;" parent="1" vertex="1">
          <mxGeometry x="2140" y="130" width="400" height="120" as="geometry" />
        </mxCell>
        <mxCell id="2vuc5O_I5Wunuj1L5ysl-253" value="" style="rounded=0;whiteSpace=wrap;html=1;" parent="1" vertex="1">
          <mxGeometry x="2240" y="175" width="290" height="30" as="geometry" />
        </mxCell>
        <mxCell id="2vuc5O_I5Wunuj1L5ysl-254" value="" style="rounded=0;whiteSpace=wrap;html=1;" parent="1" vertex="1">
          <mxGeometry x="2386" y="175" width="73" height="30" as="geometry" />
        </mxCell>
        <mxCell id="2vuc5O_I5Wunuj1L5ysl-255" value="" style="rounded=0;whiteSpace=wrap;html=1;" parent="1" vertex="1">
          <mxGeometry x="2313" y="175" width="73" height="30" as="geometry" />
        </mxCell>
        <mxCell id="2vuc5O_I5Wunuj1L5ysl-256" value="" style="rounded=1;whiteSpace=wrap;html=1;strokeWidth=2;fillWeight=4;hachureGap=8;hachureAngle=45;fillColor=#1ba1e2;sketch=1;" parent="1" vertex="1">
          <mxGeometry x="2240" y="175" width="73" height="30" as="geometry" />
        </mxCell>
        <mxCell id="2vuc5O_I5Wunuj1L5ysl-257" value="&lt;font style=&quot;font-size: 30px;&quot;&gt;L&lt;/font&gt;" style="ellipse;whiteSpace=wrap;html=1;" parent="1" vertex="1">
          <mxGeometry x="2150" y="150" width="80" height="80" as="geometry" />
        </mxCell>
        <mxCell id="2vuc5O_I5Wunuj1L5ysl-258" value="" style="rounded=0;whiteSpace=wrap;html=1;" parent="1" vertex="1">
          <mxGeometry x="2140" y="250" width="400" height="40" as="geometry" />
        </mxCell>
        <mxCell id="2vuc5O_I5Wunuj1L5ysl-259" value="Title" style="text;strokeColor=none;fillColor=none;html=1;fontSize=24;fontStyle=1;verticalAlign=middle;align=center;" parent="1" vertex="1">
          <mxGeometry x="2150" y="250" width="100" height="40" as="geometry" />
        </mxCell>
        <mxCell id="2vuc5O_I5Wunuj1L5ysl-260" value="" style="rounded=0;whiteSpace=wrap;html=1;" parent="1" vertex="1">
          <mxGeometry x="2140" y="290" width="400" height="280" as="geometry" />
        </mxCell>
        <mxCell id="2vuc5O_I5Wunuj1L5ysl-261" value="" style="rounded=0;whiteSpace=wrap;html=1;" parent="1" vertex="1">
          <mxGeometry x="2350" y="310" width="180" height="240" as="geometry" />
        </mxCell>
        <mxCell id="2vuc5O_I5Wunuj1L5ysl-262" value="" style="rounded=0;whiteSpace=wrap;html=1;" parent="1" vertex="1">
          <mxGeometry x="2170" y="340" width="10" height="10" as="geometry" />
        </mxCell>
        <mxCell id="2vuc5O_I5Wunuj1L5ysl-263" value="" style="endArrow=none;html=1;rounded=0;exitX=0;exitY=0;exitDx=0;exitDy=0;entryX=1;entryY=1;entryDx=0;entryDy=0;" parent="1" source="2vuc5O_I5Wunuj1L5ysl-262" target="2vuc5O_I5Wunuj1L5ysl-262" edge="1">
          <mxGeometry width="50" height="50" relative="1" as="geometry">
            <mxPoint x="2180" y="370" as="sourcePoint" />
            <mxPoint x="2230" y="320" as="targetPoint" />
          </mxGeometry>
        </mxCell>
        <mxCell id="2vuc5O_I5Wunuj1L5ysl-264" value="" style="endArrow=none;html=1;rounded=0;exitX=0;exitY=1;exitDx=0;exitDy=0;entryX=1;entryY=0;entryDx=0;entryDy=0;" parent="1" source="2vuc5O_I5Wunuj1L5ysl-262" target="2vuc5O_I5Wunuj1L5ysl-262" edge="1">
          <mxGeometry width="50" height="50" relative="1" as="geometry">
            <mxPoint x="2180" y="380" as="sourcePoint" />
            <mxPoint x="2230" y="330" as="targetPoint" />
          </mxGeometry>
        </mxCell>
        <mxCell id="2vuc5O_I5Wunuj1L5ysl-265" value="" style="rounded=0;whiteSpace=wrap;html=1;" parent="1" vertex="1">
          <mxGeometry x="2170" y="380" width="10" height="10" as="geometry" />
        </mxCell>
        <mxCell id="2vuc5O_I5Wunuj1L5ysl-266" value="" style="endArrow=none;html=1;rounded=0;exitX=0;exitY=0;exitDx=0;exitDy=0;entryX=1;entryY=1;entryDx=0;entryDy=0;" parent="1" source="2vuc5O_I5Wunuj1L5ysl-265" target="2vuc5O_I5Wunuj1L5ysl-265" edge="1">
          <mxGeometry width="50" height="50" relative="1" as="geometry">
            <mxPoint x="2180" y="410" as="sourcePoint" />
            <mxPoint x="2230" y="360" as="targetPoint" />
          </mxGeometry>
        </mxCell>
        <mxCell id="2vuc5O_I5Wunuj1L5ysl-267" value="" style="endArrow=none;html=1;rounded=0;exitX=0;exitY=1;exitDx=0;exitDy=0;entryX=1;entryY=0;entryDx=0;entryDy=0;" parent="1" source="2vuc5O_I5Wunuj1L5ysl-265" target="2vuc5O_I5Wunuj1L5ysl-265" edge="1">
          <mxGeometry width="50" height="50" relative="1" as="geometry">
            <mxPoint x="2180" y="420" as="sourcePoint" />
            <mxPoint x="2230" y="370" as="targetPoint" />
          </mxGeometry>
        </mxCell>
        <mxCell id="2vuc5O_I5Wunuj1L5ysl-268" value="" style="rounded=0;whiteSpace=wrap;html=1;" parent="1" vertex="1">
          <mxGeometry x="2190" y="337.5" width="120" height="15" as="geometry" />
        </mxCell>
        <mxCell id="2vuc5O_I5Wunuj1L5ysl-269" value="" style="rounded=0;whiteSpace=wrap;html=1;" parent="1" vertex="1">
          <mxGeometry x="2190" y="377.5" width="120" height="15" as="geometry" />
        </mxCell>
        <mxCell id="2vuc5O_I5Wunuj1L5ysl-270" value="" style="rounded=0;whiteSpace=wrap;html=1;" parent="1" vertex="1">
          <mxGeometry x="2150" y="405" width="190" height="155" as="geometry" />
        </mxCell>
        <mxCell id="2vuc5O_I5Wunuj1L5ysl-271" value="" style="rounded=0;whiteSpace=wrap;html=1;" parent="1" vertex="1">
          <mxGeometry x="2160" y="420" width="60" height="20" as="geometry" />
        </mxCell>
        <mxCell id="2vuc5O_I5Wunuj1L5ysl-272" value="" style="rounded=0;whiteSpace=wrap;html=1;" parent="1" vertex="1">
          <mxGeometry x="2160" y="460" width="60" height="20" as="geometry" />
        </mxCell>
        <mxCell id="2vuc5O_I5Wunuj1L5ysl-274" value="Button" style="rounded=1;fillColor=#0057D8;strokeColor=none;html=1;whiteSpace=wrap;fontColor=#ffffff;align=center;verticalAlign=middle;fontStyle=0;fontSize=12;sketch=0;" parent="1" vertex="1">
          <mxGeometry x="2160" y="500" width="50" height="21.25" as="geometry" />
        </mxCell>
        <mxCell id="2vuc5O_I5Wunuj1L5ysl-275" value="" style="rounded=0;whiteSpace=wrap;html=1;align=center;" parent="1" vertex="1">
          <mxGeometry x="2230" y="417.5" width="100" height="120" as="geometry" />
        </mxCell>
        <mxCell id="2vuc5O_I5Wunuj1L5ysl-276" value="" style="rounded=0;whiteSpace=wrap;html=1;" parent="1" vertex="1">
          <mxGeometry x="2370" y="335" width="60" height="30" as="geometry" />
        </mxCell>
        <mxCell id="2vuc5O_I5Wunuj1L5ysl-277" value="" style="endArrow=none;html=1;rounded=0;exitX=0;exitY=0;exitDx=0;exitDy=0;entryX=0;entryY=0;entryDx=0;entryDy=0;" parent="1" source="2vuc5O_I5Wunuj1L5ysl-261" target="2vuc5O_I5Wunuj1L5ysl-276" edge="1">
          <mxGeometry width="50" height="50" relative="1" as="geometry">
            <mxPoint x="2570" y="310" as="sourcePoint" />
            <mxPoint x="2620" y="260" as="targetPoint" />
          </mxGeometry>
        </mxCell>
        <mxCell id="2vuc5O_I5Wunuj1L5ysl-278" value="" style="endArrow=none;html=1;rounded=0;exitX=0.5;exitY=1;exitDx=0;exitDy=0;entryX=0.984;entryY=0.993;entryDx=0;entryDy=0;entryPerimeter=0;" parent="1" source="2vuc5O_I5Wunuj1L5ysl-276" target="2vuc5O_I5Wunuj1L5ysl-261" edge="1">
          <mxGeometry width="50" height="50" relative="1" as="geometry">
            <mxPoint x="2570" y="410" as="sourcePoint" />
            <mxPoint x="2620" y="360" as="targetPoint" />
          </mxGeometry>
        </mxCell>
        <mxCell id="2vuc5O_I5Wunuj1L5ysl-279" value="" style="endArrow=none;html=1;rounded=0;exitX=0;exitY=1;exitDx=0;exitDy=0;entryX=1;entryY=0;entryDx=0;entryDy=0;" parent="1" source="2vuc5O_I5Wunuj1L5ysl-261" target="2vuc5O_I5Wunuj1L5ysl-261" edge="1">
          <mxGeometry width="50" height="50" relative="1" as="geometry">
            <mxPoint x="2560" y="350" as="sourcePoint" />
            <mxPoint x="2610" y="300" as="targetPoint" />
          </mxGeometry>
        </mxCell>
        <mxCell id="2vuc5O_I5Wunuj1L5ysl-280" value="&lt;span style=&quot;font-size: 20px;&quot;&gt;Google map&lt;/span&gt;" style="text;html=1;align=center;verticalAlign=middle;whiteSpace=wrap;rounded=0;fontColor=#FF0000;" parent="1" vertex="1">
          <mxGeometry x="2620" y="367.5" width="120" height="40" as="geometry" />
        </mxCell>
        <mxCell id="2vuc5O_I5Wunuj1L5ysl-281" value="" style="endArrow=classic;html=1;rounded=0;entryX=1.003;entryY=0.675;entryDx=0;entryDy=0;entryPerimeter=0;exitX=0;exitY=0.5;exitDx=0;exitDy=0;" parent="1" edge="1">
          <mxGeometry width="50" height="50" relative="1" as="geometry">
            <mxPoint x="2620" y="386.5" as="sourcePoint" />
            <mxPoint x="2546" y="388.5" as="targetPoint" />
          </mxGeometry>
        </mxCell>
        <mxCell id="2vuc5O_I5Wunuj1L5ysl-282" value="&lt;span style=&quot;font-size: 20px;&quot;&gt;Contact Form&lt;/span&gt;" style="text;html=1;align=center;verticalAlign=middle;whiteSpace=wrap;rounded=0;fontColor=#FF0000;" parent="1" vertex="1">
          <mxGeometry x="1920" y="395" width="120" height="40" as="geometry" />
        </mxCell>
        <mxCell id="2vuc5O_I5Wunuj1L5ysl-283" value="" style="endArrow=classic;html=1;rounded=0;exitX=1;exitY=0.5;exitDx=0;exitDy=0;entryX=-0.013;entryY=0.454;entryDx=0;entryDy=0;entryPerimeter=0;" parent="1" target="2vuc5O_I5Wunuj1L5ysl-260" edge="1">
          <mxGeometry width="50" height="50" relative="1" as="geometry">
            <mxPoint x="2040" y="415" as="sourcePoint" />
            <mxPoint x="2100" y="350" as="targetPoint" />
          </mxGeometry>
        </mxCell>
        <mxCell id="2vuc5O_I5Wunuj1L5ysl-284" value="&lt;font color=&quot;#ff3333&quot;&gt;Phone&lt;/font&gt;" style="text;html=1;align=center;verticalAlign=middle;whiteSpace=wrap;rounded=0;" parent="1" vertex="1">
          <mxGeometry x="2280" y="297.5" width="60" height="30" as="geometry" />
        </mxCell>
        <mxCell id="2vuc5O_I5Wunuj1L5ysl-285" value="&lt;font color=&quot;#ff3333&quot;&gt;Email&lt;/font&gt;" style="text;html=1;align=center;verticalAlign=middle;whiteSpace=wrap;rounded=0;" parent="1" vertex="1">
          <mxGeometry x="2290" y="350" width="60" height="30" as="geometry" />
        </mxCell>
        <mxCell id="2vuc5O_I5Wunuj1L5ysl-286" value="" style="endArrow=classic;html=1;rounded=0;exitX=0;exitY=0.5;exitDx=0;exitDy=0;entryX=0.5;entryY=0;entryDx=0;entryDy=0;" parent="1" source="2vuc5O_I5Wunuj1L5ysl-284" target="2vuc5O_I5Wunuj1L5ysl-268" edge="1">
          <mxGeometry width="50" height="50" relative="1" as="geometry">
            <mxPoint x="1990" y="220" as="sourcePoint" />
            <mxPoint x="2040" y="170" as="targetPoint" />
          </mxGeometry>
        </mxCell>
        <mxCell id="2vuc5O_I5Wunuj1L5ysl-289" value="" style="endArrow=classic;html=1;rounded=0;exitX=0;exitY=0.5;exitDx=0;exitDy=0;entryX=0.5;entryY=0;entryDx=0;entryDy=0;" parent="1" source="2vuc5O_I5Wunuj1L5ysl-284" target="2vuc5O_I5Wunuj1L5ysl-268" edge="1">
          <mxGeometry width="50" height="50" relative="1" as="geometry">
            <mxPoint x="2280" y="313" as="sourcePoint" />
            <mxPoint x="2250" y="338" as="targetPoint" />
            <Array as="points">
              <mxPoint x="2270" y="320" />
            </Array>
          </mxGeometry>
        </mxCell>
        <mxCell id="2vuc5O_I5Wunuj1L5ysl-290" value="" style="endArrow=classic;html=1;rounded=0;exitX=0;exitY=0.5;exitDx=0;exitDy=0;entryX=0.5;entryY=0;entryDx=0;entryDy=0;" parent="1" source="2vuc5O_I5Wunuj1L5ysl-285" target="2vuc5O_I5Wunuj1L5ysl-269" edge="1">
          <mxGeometry width="50" height="50" relative="1" as="geometry">
            <mxPoint x="2670" y="270" as="sourcePoint" />
            <mxPoint x="2720" y="220" as="targetPoint" />
          </mxGeometry>
        </mxCell>
        <mxCell id="2vuc5O_I5Wunuj1L5ysl-393" value="" style="rounded=0;whiteSpace=wrap;html=1;" parent="1" vertex="1">
          <mxGeometry x="2140" y="570" width="400" height="240" as="geometry" />
        </mxCell>
        <mxCell id="2vuc5O_I5Wunuj1L5ysl-394" value="Title" style="text;strokeColor=none;fillColor=none;html=1;fontSize=24;fontStyle=1;verticalAlign=middle;align=left;" parent="1" vertex="1">
          <mxGeometry x="2160" y="590" width="100" height="50" as="geometry" />
        </mxCell>
        <mxCell id="2vuc5O_I5Wunuj1L5ysl-395" value="" style="rounded=0;whiteSpace=wrap;html=1;" parent="1" vertex="1">
          <mxGeometry x="2160" y="640" width="90" height="10" as="geometry" />
        </mxCell>
        <mxCell id="2vuc5O_I5Wunuj1L5ysl-396" value="" style="rounded=0;whiteSpace=wrap;html=1;" parent="1" vertex="1">
          <mxGeometry x="2160" y="660" width="90" height="10" as="geometry" />
        </mxCell>
        <mxCell id="2vuc5O_I5Wunuj1L5ysl-397" value="" style="rounded=0;whiteSpace=wrap;html=1;" parent="1" vertex="1">
          <mxGeometry x="2160" y="680" width="90" height="50" as="geometry" />
        </mxCell>
        <mxCell id="2vuc5O_I5Wunuj1L5ysl-398" value="Button" style="rounded=1;fillColor=#0057D8;strokeColor=none;html=1;whiteSpace=wrap;fontColor=#ffffff;align=center;verticalAlign=middle;fontStyle=0;fontSize=12;sketch=0;" parent="1" vertex="1">
          <mxGeometry x="2160" y="740" width="63" height="30" as="geometry" />
        </mxCell>
        <mxCell id="2vuc5O_I5Wunuj1L5ysl-399" value="Title" style="text;strokeColor=none;fillColor=none;html=1;fontSize=24;fontStyle=1;verticalAlign=middle;align=left;" parent="1" vertex="1">
          <mxGeometry x="2273" y="590" width="100" height="50" as="geometry" />
        </mxCell>
        <mxCell id="2vuc5O_I5Wunuj1L5ysl-400" value="Lorem ipsum dolor sit amet, consectetur adipisicing elit, sed do eiusmod tempor incididunt ut labore et dolore magna&amp;nbsp;" style="text;spacingTop=-5;whiteSpace=wrap;html=1;align=left;fontSize=12;fontFamily=Helvetica;fillColor=none;strokeColor=none;" parent="1" vertex="1">
          <mxGeometry x="2276" y="635" width="107" height="110" as="geometry" />
        </mxCell>
        <mxCell id="2vuc5O_I5Wunuj1L5ysl-401" value="&lt;font style=&quot;font-size: 30px;&quot;&gt;L&lt;/font&gt;" style="ellipse;whiteSpace=wrap;html=1;" parent="1" vertex="1">
          <mxGeometry x="2423" y="595" width="40" height="40" as="geometry" />
        </mxCell>
        <mxCell id="2vuc5O_I5Wunuj1L5ysl-402" value="" style="rounded=0;whiteSpace=wrap;html=1;" parent="1" vertex="1">
          <mxGeometry x="2423" y="650" width="10" height="10" as="geometry" />
        </mxCell>
        <mxCell id="2vuc5O_I5Wunuj1L5ysl-403" value="" style="endArrow=none;html=1;rounded=0;exitX=0;exitY=1;exitDx=0;exitDy=0;entryX=1;entryY=0;entryDx=0;entryDy=0;" parent="1" source="2vuc5O_I5Wunuj1L5ysl-402" target="2vuc5O_I5Wunuj1L5ysl-402" edge="1">
          <mxGeometry width="50" height="50" relative="1" as="geometry">
            <mxPoint x="2433" y="690" as="sourcePoint" />
            <mxPoint x="2483" y="640" as="targetPoint" />
          </mxGeometry>
        </mxCell>
        <mxCell id="2vuc5O_I5Wunuj1L5ysl-404" value="" style="endArrow=none;html=1;rounded=0;exitX=0;exitY=0;exitDx=0;exitDy=0;entryX=1;entryY=1;entryDx=0;entryDy=0;" parent="1" source="2vuc5O_I5Wunuj1L5ysl-402" target="2vuc5O_I5Wunuj1L5ysl-402" edge="1">
          <mxGeometry width="50" height="50" relative="1" as="geometry">
            <mxPoint x="2443" y="700" as="sourcePoint" />
            <mxPoint x="2493" y="650" as="targetPoint" />
          </mxGeometry>
        </mxCell>
        <mxCell id="2vuc5O_I5Wunuj1L5ysl-405" value="" style="rounded=0;whiteSpace=wrap;html=1;" parent="1" vertex="1">
          <mxGeometry x="2423" y="680" width="10" height="10" as="geometry" />
        </mxCell>
        <mxCell id="2vuc5O_I5Wunuj1L5ysl-406" value="" style="endArrow=none;html=1;rounded=0;exitX=0;exitY=1;exitDx=0;exitDy=0;entryX=1;entryY=0;entryDx=0;entryDy=0;" parent="1" source="2vuc5O_I5Wunuj1L5ysl-405" target="2vuc5O_I5Wunuj1L5ysl-405" edge="1">
          <mxGeometry width="50" height="50" relative="1" as="geometry">
            <mxPoint x="2433" y="720" as="sourcePoint" />
            <mxPoint x="2483" y="670" as="targetPoint" />
          </mxGeometry>
        </mxCell>
        <mxCell id="2vuc5O_I5Wunuj1L5ysl-407" value="" style="endArrow=none;html=1;rounded=0;exitX=0;exitY=0;exitDx=0;exitDy=0;entryX=1;entryY=1;entryDx=0;entryDy=0;" parent="1" source="2vuc5O_I5Wunuj1L5ysl-405" target="2vuc5O_I5Wunuj1L5ysl-405" edge="1">
          <mxGeometry width="50" height="50" relative="1" as="geometry">
            <mxPoint x="2443" y="730" as="sourcePoint" />
            <mxPoint x="2493" y="680" as="targetPoint" />
          </mxGeometry>
        </mxCell>
        <mxCell id="2vuc5O_I5Wunuj1L5ysl-408" value="" style="rounded=0;whiteSpace=wrap;html=1;" parent="1" vertex="1">
          <mxGeometry x="2440" y="650" width="90" height="10" as="geometry" />
        </mxCell>
        <mxCell id="2vuc5O_I5Wunuj1L5ysl-409" value="" style="rounded=0;whiteSpace=wrap;html=1;" parent="1" vertex="1">
          <mxGeometry x="2440" y="680" width="90" height="10" as="geometry" />
        </mxCell>
        <mxCell id="2vuc5O_I5Wunuj1L5ysl-410" value="Lorem ipsum dolor sit amet, consectetur adipisicing elit, sed" style="text;spacingTop=-5;whiteSpace=wrap;html=1;align=left;fontSize=12;fontFamily=Helvetica;fillColor=none;strokeColor=none;" parent="1" vertex="1">
          <mxGeometry x="2423" y="700" width="107" height="60" as="geometry" />
        </mxCell>
        <mxCell id="2vuc5O_I5Wunuj1L5ysl-414" value="" style="rounded=0;whiteSpace=wrap;html=1;" parent="1" vertex="1">
          <mxGeometry x="2140" y="810" width="400" height="30" as="geometry" />
        </mxCell>
        <mxCell id="2vuc5O_I5Wunuj1L5ysl-415" value="" style="rounded=0;whiteSpace=wrap;html=1;" parent="1" vertex="1">
          <mxGeometry x="2155" y="821.88" width="100" height="10" as="geometry" />
        </mxCell>
        <mxCell id="WWRPXXlvS3BgG0VClWwx-1" value="&lt;font style=&quot;font-size: 25px;&quot;&gt;&lt;u&gt;Mobile version&lt;/u&gt;&lt;/font&gt;" style="text;html=1;align=center;verticalAlign=middle;whiteSpace=wrap;rounded=0;" vertex="1" parent="1">
          <mxGeometry x="7.5" y="70" width="200" height="30" as="geometry" />
        </mxCell>
        <mxCell id="WWRPXXlvS3BgG0VClWwx-22" value="&lt;span style=&quot;font-size: 20px;&quot;&gt;Phone call&lt;/span&gt;" style="text;html=1;align=center;verticalAlign=middle;whiteSpace=wrap;rounded=0;fontColor=#FF0000;" vertex="1" parent="1">
          <mxGeometry x="-200" y="195" width="120" height="40" as="geometry" />
        </mxCell>
        <mxCell id="WWRPXXlvS3BgG0VClWwx-23" value="&lt;span style=&quot;font-size: 20px;&quot;&gt;Mobile menu&lt;/span&gt;" style="text;html=1;align=center;verticalAlign=middle;whiteSpace=wrap;rounded=0;fontColor=#FF0000;" vertex="1" parent="1">
          <mxGeometry x="323" y="180" width="120" height="40" as="geometry" />
        </mxCell>
        <mxCell id="WWRPXXlvS3BgG0VClWwx-24" value="" style="endArrow=classic;html=1;rounded=0;exitX=1;exitY=0.5;exitDx=0;exitDy=0;entryX=0.011;entryY=0.194;entryDx=0;entryDy=0;entryPerimeter=0;" edge="1" parent="1" source="WWRPXXlvS3BgG0VClWwx-22" target="WWRPXXlvS3BgG0VClWwx-122">
          <mxGeometry width="50" height="50" relative="1" as="geometry">
            <mxPoint x="-70" y="285" as="sourcePoint" />
            <mxPoint x="-610" y="130" as="targetPoint" />
          </mxGeometry>
        </mxCell>
        <mxCell id="WWRPXXlvS3BgG0VClWwx-25" value="" style="endArrow=classic;html=1;rounded=0;exitX=0;exitY=0.5;exitDx=0;exitDy=0;entryX=1.008;entryY=0.167;entryDx=0;entryDy=0;entryPerimeter=0;" edge="1" parent="1" source="WWRPXXlvS3BgG0VClWwx-23" target="WWRPXXlvS3BgG0VClWwx-122">
          <mxGeometry width="50" height="50" relative="1" as="geometry">
            <mxPoint x="290" y="315" as="sourcePoint" />
            <mxPoint x="390" y="110" as="targetPoint" />
          </mxGeometry>
        </mxCell>
        <mxCell id="WWRPXXlvS3BgG0VClWwx-33" value="" style="shape=flexArrow;endArrow=classic;html=1;rounded=0;exitX=-0.004;exitY=0.799;exitDx=0;exitDy=0;fillColor=#f8cecc;strokeColor=#b85450;exitPerimeter=0;entryX=1;entryY=0.396;entryDx=0;entryDy=0;entryPerimeter=0;" edge="1" parent="1" source="2vuc5O_I5Wunuj1L5ysl-35" target="WWRPXXlvS3BgG0VClWwx-138">
          <mxGeometry width="50" height="50" relative="1" as="geometry">
            <mxPoint x="370" y="1020" as="sourcePoint" />
            <mxPoint x="260" y="540" as="targetPoint" />
          </mxGeometry>
        </mxCell>
        <mxCell id="WWRPXXlvS3BgG0VClWwx-43" value="&lt;span style=&quot;font-size: 20px;&quot;&gt;Responsive&lt;/span&gt;" style="text;html=1;align=center;verticalAlign=middle;whiteSpace=wrap;rounded=0;fontColor=#FF0000;rotation=-30;" vertex="1" parent="1">
          <mxGeometry x="370" y="620" width="120" height="40" as="geometry" />
        </mxCell>
        <mxCell id="WWRPXXlvS3BgG0VClWwx-115" value="" style="shape=flexArrow;endArrow=classic;html=1;rounded=0;exitX=-0.004;exitY=0.799;exitDx=0;exitDy=0;entryX=1.004;entryY=0.504;entryDx=0;entryDy=0;fillColor=#f8cecc;strokeColor=#b85450;exitPerimeter=0;entryPerimeter=0;" edge="1" parent="1" target="WWRPXXlvS3BgG0VClWwx-220">
          <mxGeometry width="50" height="50" relative="1" as="geometry">
            <mxPoint x="639.6" y="904.51" as="sourcePoint" />
            <mxPoint x="240" y="1180" as="targetPoint" />
          </mxGeometry>
        </mxCell>
        <mxCell id="WWRPXXlvS3BgG0VClWwx-116" value="&lt;span style=&quot;font-size: 20px;&quot;&gt;Responsive&lt;/span&gt;" style="text;html=1;align=center;verticalAlign=middle;whiteSpace=wrap;rounded=0;fontColor=#FF0000;rotation=-60;" vertex="1" parent="1">
          <mxGeometry x="400" y="1200" width="120" height="40" as="geometry" />
        </mxCell>
        <mxCell id="WWRPXXlvS3BgG0VClWwx-117" value="" style="endArrow=classic;html=1;rounded=0;" edge="1" parent="1">
          <mxGeometry width="50" height="50" relative="1" as="geometry">
            <mxPoint x="803" y="925" as="sourcePoint" />
            <mxPoint x="803" y="885" as="targetPoint" />
          </mxGeometry>
        </mxCell>
        <mxCell id="WWRPXXlvS3BgG0VClWwx-122" value="" style="html=1;verticalLabelPosition=bottom;labelBackgroundColor=#ffffff;verticalAlign=top;shadow=0;dashed=0;strokeWidth=1;shape=mxgraph.ios7.misc.iphone;strokeColor=#c0c0c0;" vertex="1" parent="1">
          <mxGeometry x="10" y="120" width="240" height="480" as="geometry" />
        </mxCell>
        <mxCell id="WWRPXXlvS3BgG0VClWwx-127" value="&lt;font style=&quot;font-size: 30px;&quot;&gt;L&lt;/font&gt;" style="ellipse;whiteSpace=wrap;html=1;" vertex="1" parent="1">
          <mxGeometry x="97.5" y="270" width="65" height="70" as="geometry" />
        </mxCell>
        <mxCell id="WWRPXXlvS3BgG0VClWwx-134" value="" style="endArrow=none;html=1;rounded=0;exitX=0.064;exitY=0.506;exitDx=0;exitDy=0;entryX=0.941;entryY=0.85;entryDx=0;entryDy=0;exitPerimeter=0;entryPerimeter=0;" edge="1" parent="1" source="WWRPXXlvS3BgG0VClWwx-122" target="WWRPXXlvS3BgG0VClWwx-122">
          <mxGeometry width="50" height="50" relative="1" as="geometry">
            <mxPoint x="20" y="344.63" as="sourcePoint" />
            <mxPoint x="220" y="465.63" as="targetPoint" />
          </mxGeometry>
        </mxCell>
        <mxCell id="WWRPXXlvS3BgG0VClWwx-137" value="" style="endArrow=none;html=1;rounded=0;exitX=0.063;exitY=0.85;exitDx=0;exitDy=0;entryX=0.947;entryY=0.514;entryDx=0;entryDy=0;entryPerimeter=0;exitPerimeter=0;" edge="1" parent="1" source="WWRPXXlvS3BgG0VClWwx-122" target="WWRPXXlvS3BgG0VClWwx-122">
          <mxGeometry width="50" height="50" relative="1" as="geometry">
            <mxPoint x="20" y="475" as="sourcePoint" />
            <mxPoint x="220" y="354" as="targetPoint" />
          </mxGeometry>
        </mxCell>
        <mxCell id="WWRPXXlvS3BgG0VClWwx-138" value="" style="html=1;verticalLabelPosition=bottom;labelBackgroundColor=#ffffff;verticalAlign=top;shadow=0;dashed=0;strokeWidth=1;shape=mxgraph.ios7.misc.iphone;strokeColor=#c0c0c0;" vertex="1" parent="1">
          <mxGeometry x="10" y="600" width="240" height="480" as="geometry" />
        </mxCell>
        <mxCell id="WWRPXXlvS3BgG0VClWwx-146" value="" style="rounded=0;whiteSpace=wrap;html=1;" vertex="1" parent="1">
          <mxGeometry x="30" y="200" width="20" height="20" as="geometry" />
        </mxCell>
        <mxCell id="WWRPXXlvS3BgG0VClWwx-147" value="" style="endArrow=none;html=1;rounded=0;entryX=1;entryY=1;entryDx=0;entryDy=0;exitX=0;exitY=0;exitDx=0;exitDy=0;" edge="1" source="WWRPXXlvS3BgG0VClWwx-146" target="WWRPXXlvS3BgG0VClWwx-146" parent="1">
          <mxGeometry width="50" height="50" relative="1" as="geometry">
            <mxPoint x="-180" y="276.25" as="sourcePoint" />
            <mxPoint x="-170" y="276.25" as="targetPoint" />
          </mxGeometry>
        </mxCell>
        <mxCell id="WWRPXXlvS3BgG0VClWwx-148" value="" style="endArrow=none;html=1;rounded=0;entryX=1;entryY=0;entryDx=0;entryDy=0;exitX=0;exitY=1;exitDx=0;exitDy=0;" edge="1" source="WWRPXXlvS3BgG0VClWwx-146" target="WWRPXXlvS3BgG0VClWwx-146" parent="1">
          <mxGeometry width="50" height="50" relative="1" as="geometry">
            <mxPoint x="-170" y="303.75" as="sourcePoint" />
            <mxPoint x="-150" y="323.75" as="targetPoint" />
          </mxGeometry>
        </mxCell>
        <mxCell id="WWRPXXlvS3BgG0VClWwx-149" value="" style="rounded=0;whiteSpace=wrap;html=1;" vertex="1" parent="1">
          <mxGeometry x="210" y="200" width="20" height="20" as="geometry" />
        </mxCell>
        <mxCell id="WWRPXXlvS3BgG0VClWwx-150" value="" style="endArrow=none;html=1;rounded=0;" edge="1" parent="1">
          <mxGeometry width="50" height="50" relative="1" as="geometry">
            <mxPoint x="215" y="203.51" as="sourcePoint" />
            <mxPoint x="225" y="203.51" as="targetPoint" />
          </mxGeometry>
        </mxCell>
        <mxCell id="WWRPXXlvS3BgG0VClWwx-151" value="" style="endArrow=none;html=1;rounded=0;" edge="1" parent="1">
          <mxGeometry width="50" height="50" relative="1" as="geometry">
            <mxPoint x="215" y="208.26999999999998" as="sourcePoint" />
            <mxPoint x="225" y="208.26999999999998" as="targetPoint" />
          </mxGeometry>
        </mxCell>
        <mxCell id="WWRPXXlvS3BgG0VClWwx-152" value="" style="endArrow=none;html=1;rounded=0;" edge="1" parent="1">
          <mxGeometry width="50" height="50" relative="1" as="geometry">
            <mxPoint x="215" y="213.72000000000003" as="sourcePoint" />
            <mxPoint x="225" y="213.72000000000003" as="targetPoint" />
          </mxGeometry>
        </mxCell>
        <mxCell id="WWRPXXlvS3BgG0VClWwx-153" value="" style="endArrow=none;html=1;rounded=0;" edge="1" parent="1">
          <mxGeometry width="50" height="50" relative="1" as="geometry">
            <mxPoint x="215" y="218.69000000000005" as="sourcePoint" />
            <mxPoint x="225" y="218.69000000000005" as="targetPoint" />
          </mxGeometry>
        </mxCell>
        <mxCell id="WWRPXXlvS3BgG0VClWwx-154" value="" style="endArrow=none;html=1;rounded=0;" edge="1" parent="1">
          <mxGeometry width="50" height="50" relative="1" as="geometry">
            <mxPoint x="215" y="218.62" as="sourcePoint" />
            <mxPoint x="225" y="218.62" as="targetPoint" />
          </mxGeometry>
        </mxCell>
        <mxCell id="WWRPXXlvS3BgG0VClWwx-155" value="" style="endArrow=none;html=1;rounded=0;entryX=1;entryY=0;entryDx=0;entryDy=0;exitX=0;exitY=1;exitDx=0;exitDy=0;" edge="1" source="WWRPXXlvS3BgG0VClWwx-160" target="WWRPXXlvS3BgG0VClWwx-160" parent="1">
          <mxGeometry width="50" height="50" relative="1" as="geometry">
            <mxPoint x="320" y="890" as="sourcePoint" />
            <mxPoint x="370" y="840" as="targetPoint" />
          </mxGeometry>
        </mxCell>
        <mxCell id="WWRPXXlvS3BgG0VClWwx-156" value="" style="endArrow=none;html=1;rounded=0;exitX=0;exitY=0;exitDx=0;exitDy=0;entryX=1;entryY=1;entryDx=0;entryDy=0;" edge="1" source="WWRPXXlvS3BgG0VClWwx-160" target="WWRPXXlvS3BgG0VClWwx-160" parent="1">
          <mxGeometry width="50" height="50" relative="1" as="geometry">
            <mxPoint x="470" y="880" as="sourcePoint" />
            <mxPoint x="520" y="830" as="targetPoint" />
          </mxGeometry>
        </mxCell>
        <mxCell id="WWRPXXlvS3BgG0VClWwx-157" value="Title" style="text;strokeColor=none;fillColor=none;html=1;fontSize=24;fontStyle=1;verticalAlign=middle;align=center;" vertex="1" parent="1">
          <mxGeometry x="30" y="679.38" width="100" height="40" as="geometry" />
        </mxCell>
        <mxCell id="WWRPXXlvS3BgG0VClWwx-158" value="Lorem ipsum dolor sit amet, consectetur adipisicing elit, sed do eiusmod tempor incididunt ut labore et dolore magna aliqua. Ut enim ad minim veniam," style="text;spacingTop=-5;whiteSpace=wrap;html=1;align=left;fontSize=12;fontFamily=Helvetica;fillColor=none;strokeColor=none;" vertex="1" parent="1">
          <mxGeometry x="50" y="720" width="141" height="110" as="geometry" />
        </mxCell>
        <mxCell id="WWRPXXlvS3BgG0VClWwx-159" value="Button" style="rounded=1;fillColor=#0057D8;strokeColor=none;html=1;whiteSpace=wrap;fontColor=#ffffff;align=center;verticalAlign=middle;fontStyle=0;fontSize=12;sketch=0;" vertex="1" parent="1">
          <mxGeometry x="50" y="832.5" width="63" height="30" as="geometry" />
        </mxCell>
        <mxCell id="WWRPXXlvS3BgG0VClWwx-160" value="" style="whiteSpace=wrap;html=1;aspect=fixed;" vertex="1" parent="1">
          <mxGeometry x="60.5" y="880" width="120" height="120" as="geometry" />
        </mxCell>
        <mxCell id="WWRPXXlvS3BgG0VClWwx-161" value="" style="endArrow=none;html=1;rounded=0;exitX=0;exitY=0;exitDx=0;exitDy=0;entryX=1;entryY=1;entryDx=0;entryDy=0;" edge="1" parent="1">
          <mxGeometry width="50" height="50" relative="1" as="geometry">
            <mxPoint x="61" y="880" as="sourcePoint" />
            <mxPoint x="181" y="1000" as="targetPoint" />
          </mxGeometry>
        </mxCell>
        <mxCell id="WWRPXXlvS3BgG0VClWwx-162" value="" style="endArrow=none;html=1;rounded=0;entryX=1;entryY=0;entryDx=0;entryDy=0;exitX=0;exitY=1;exitDx=0;exitDy=0;" edge="1" parent="1">
          <mxGeometry width="50" height="50" relative="1" as="geometry">
            <mxPoint x="61" y="1000" as="sourcePoint" />
            <mxPoint x="181" y="880" as="targetPoint" />
          </mxGeometry>
        </mxCell>
        <mxCell id="WWRPXXlvS3BgG0VClWwx-163" value="" style="html=1;verticalLabelPosition=bottom;labelBackgroundColor=#ffffff;verticalAlign=top;shadow=0;dashed=0;strokeWidth=1;shape=mxgraph.ios7.misc.iphone;strokeColor=#c0c0c0;" vertex="1" parent="1">
          <mxGeometry x="10" y="1081.88" width="240" height="480" as="geometry" />
        </mxCell>
        <mxCell id="WWRPXXlvS3BgG0VClWwx-164" value="Title" style="text;strokeColor=none;fillColor=none;html=1;fontSize=24;fontStyle=1;verticalAlign=middle;align=center;" vertex="1" parent="1">
          <mxGeometry x="80.5" y="1190" width="100" height="40" as="geometry" />
        </mxCell>
        <mxCell id="WWRPXXlvS3BgG0VClWwx-165" value="" style="rounded=0;whiteSpace=wrap;html=1;" vertex="1" parent="1">
          <mxGeometry x="50" y="1247.5" width="40" height="40" as="geometry" />
        </mxCell>
        <mxCell id="WWRPXXlvS3BgG0VClWwx-166" value="" style="endArrow=none;html=1;rounded=0;exitX=0;exitY=1;exitDx=0;exitDy=0;" edge="1" source="WWRPXXlvS3BgG0VClWwx-165" parent="1">
          <mxGeometry width="50" height="50" relative="1" as="geometry">
            <mxPoint x="40" y="1297.5" as="sourcePoint" />
            <mxPoint x="90" y="1247.5" as="targetPoint" />
          </mxGeometry>
        </mxCell>
        <mxCell id="WWRPXXlvS3BgG0VClWwx-167" value="" style="endArrow=none;html=1;rounded=0;exitX=0;exitY=0;exitDx=0;exitDy=0;entryX=1;entryY=1;entryDx=0;entryDy=0;" edge="1" source="WWRPXXlvS3BgG0VClWwx-165" target="WWRPXXlvS3BgG0VClWwx-165" parent="1">
          <mxGeometry width="50" height="50" relative="1" as="geometry">
            <mxPoint x="40" y="1177.5" as="sourcePoint" />
            <mxPoint x="90" y="1127.5" as="targetPoint" />
          </mxGeometry>
        </mxCell>
        <mxCell id="WWRPXXlvS3BgG0VClWwx-168" value="" style="rounded=0;whiteSpace=wrap;html=1;" vertex="1" parent="1">
          <mxGeometry x="110" y="1245.62" width="40" height="40" as="geometry" />
        </mxCell>
        <mxCell id="WWRPXXlvS3BgG0VClWwx-169" value="" style="endArrow=none;html=1;rounded=0;exitX=0;exitY=1;exitDx=0;exitDy=0;" edge="1" source="WWRPXXlvS3BgG0VClWwx-168" parent="1">
          <mxGeometry width="50" height="50" relative="1" as="geometry">
            <mxPoint x="100" y="1295.62" as="sourcePoint" />
            <mxPoint x="150" y="1245.62" as="targetPoint" />
          </mxGeometry>
        </mxCell>
        <mxCell id="WWRPXXlvS3BgG0VClWwx-170" value="" style="endArrow=none;html=1;rounded=0;exitX=0;exitY=0;exitDx=0;exitDy=0;entryX=1;entryY=1;entryDx=0;entryDy=0;" edge="1" source="WWRPXXlvS3BgG0VClWwx-168" target="WWRPXXlvS3BgG0VClWwx-168" parent="1">
          <mxGeometry width="50" height="50" relative="1" as="geometry">
            <mxPoint x="100" y="1175.62" as="sourcePoint" />
            <mxPoint x="150" y="1125.62" as="targetPoint" />
          </mxGeometry>
        </mxCell>
        <mxCell id="WWRPXXlvS3BgG0VClWwx-171" value="" style="rounded=0;whiteSpace=wrap;html=1;" vertex="1" parent="1">
          <mxGeometry x="170" y="1245" width="40" height="40" as="geometry" />
        </mxCell>
        <mxCell id="WWRPXXlvS3BgG0VClWwx-172" value="" style="endArrow=none;html=1;rounded=0;exitX=0;exitY=1;exitDx=0;exitDy=0;" edge="1" source="WWRPXXlvS3BgG0VClWwx-171" parent="1">
          <mxGeometry width="50" height="50" relative="1" as="geometry">
            <mxPoint x="160" y="1295" as="sourcePoint" />
            <mxPoint x="210" y="1245" as="targetPoint" />
          </mxGeometry>
        </mxCell>
        <mxCell id="WWRPXXlvS3BgG0VClWwx-173" value="" style="endArrow=none;html=1;rounded=0;exitX=0;exitY=0;exitDx=0;exitDy=0;entryX=1;entryY=1;entryDx=0;entryDy=0;" edge="1" source="WWRPXXlvS3BgG0VClWwx-171" target="WWRPXXlvS3BgG0VClWwx-171" parent="1">
          <mxGeometry width="50" height="50" relative="1" as="geometry">
            <mxPoint x="160" y="1175" as="sourcePoint" />
            <mxPoint x="210" y="1125" as="targetPoint" />
          </mxGeometry>
        </mxCell>
        <mxCell id="WWRPXXlvS3BgG0VClWwx-174" value="" style="rounded=0;whiteSpace=wrap;html=1;" vertex="1" parent="1">
          <mxGeometry x="170" y="1305.62" width="40" height="40" as="geometry" />
        </mxCell>
        <mxCell id="WWRPXXlvS3BgG0VClWwx-175" value="" style="endArrow=none;html=1;rounded=0;exitX=0;exitY=1;exitDx=0;exitDy=0;" edge="1" source="WWRPXXlvS3BgG0VClWwx-174" parent="1">
          <mxGeometry width="50" height="50" relative="1" as="geometry">
            <mxPoint x="160" y="1355.62" as="sourcePoint" />
            <mxPoint x="210" y="1305.62" as="targetPoint" />
          </mxGeometry>
        </mxCell>
        <mxCell id="WWRPXXlvS3BgG0VClWwx-176" value="" style="endArrow=none;html=1;rounded=0;exitX=0;exitY=0;exitDx=0;exitDy=0;entryX=1;entryY=1;entryDx=0;entryDy=0;" edge="1" source="WWRPXXlvS3BgG0VClWwx-174" target="WWRPXXlvS3BgG0VClWwx-174" parent="1">
          <mxGeometry width="50" height="50" relative="1" as="geometry">
            <mxPoint x="160" y="1235.62" as="sourcePoint" />
            <mxPoint x="210" y="1185.62" as="targetPoint" />
          </mxGeometry>
        </mxCell>
        <mxCell id="WWRPXXlvS3BgG0VClWwx-177" value="" style="rounded=0;whiteSpace=wrap;html=1;" vertex="1" parent="1">
          <mxGeometry x="110" y="1305.62" width="40" height="40" as="geometry" />
        </mxCell>
        <mxCell id="WWRPXXlvS3BgG0VClWwx-178" value="" style="endArrow=none;html=1;rounded=0;exitX=0;exitY=1;exitDx=0;exitDy=0;" edge="1" source="WWRPXXlvS3BgG0VClWwx-177" parent="1">
          <mxGeometry width="50" height="50" relative="1" as="geometry">
            <mxPoint x="100" y="1355.62" as="sourcePoint" />
            <mxPoint x="150" y="1305.62" as="targetPoint" />
          </mxGeometry>
        </mxCell>
        <mxCell id="WWRPXXlvS3BgG0VClWwx-179" value="" style="endArrow=none;html=1;rounded=0;exitX=0;exitY=0;exitDx=0;exitDy=0;entryX=1;entryY=1;entryDx=0;entryDy=0;" edge="1" source="WWRPXXlvS3BgG0VClWwx-177" target="WWRPXXlvS3BgG0VClWwx-177" parent="1">
          <mxGeometry width="50" height="50" relative="1" as="geometry">
            <mxPoint x="100" y="1235.62" as="sourcePoint" />
            <mxPoint x="150" y="1185.62" as="targetPoint" />
          </mxGeometry>
        </mxCell>
        <mxCell id="WWRPXXlvS3BgG0VClWwx-180" value="" style="rounded=0;whiteSpace=wrap;html=1;" vertex="1" parent="1">
          <mxGeometry x="50" y="1305.62" width="40" height="40" as="geometry" />
        </mxCell>
        <mxCell id="WWRPXXlvS3BgG0VClWwx-181" value="" style="endArrow=none;html=1;rounded=0;exitX=0;exitY=1;exitDx=0;exitDy=0;" edge="1" source="WWRPXXlvS3BgG0VClWwx-180" parent="1">
          <mxGeometry width="50" height="50" relative="1" as="geometry">
            <mxPoint x="40" y="1355.62" as="sourcePoint" />
            <mxPoint x="90" y="1305.62" as="targetPoint" />
          </mxGeometry>
        </mxCell>
        <mxCell id="WWRPXXlvS3BgG0VClWwx-182" value="" style="endArrow=none;html=1;rounded=0;exitX=0;exitY=0;exitDx=0;exitDy=0;entryX=1;entryY=1;entryDx=0;entryDy=0;" edge="1" source="WWRPXXlvS3BgG0VClWwx-180" target="WWRPXXlvS3BgG0VClWwx-180" parent="1">
          <mxGeometry width="50" height="50" relative="1" as="geometry">
            <mxPoint x="40" y="1235.62" as="sourcePoint" />
            <mxPoint x="90" y="1185.62" as="targetPoint" />
          </mxGeometry>
        </mxCell>
        <mxCell id="WWRPXXlvS3BgG0VClWwx-183" value="" style="rounded=0;whiteSpace=wrap;html=1;" vertex="1" parent="1">
          <mxGeometry x="50" y="1365.62" width="40" height="40" as="geometry" />
        </mxCell>
        <mxCell id="WWRPXXlvS3BgG0VClWwx-184" value="" style="endArrow=none;html=1;rounded=0;exitX=0;exitY=1;exitDx=0;exitDy=0;" edge="1" source="WWRPXXlvS3BgG0VClWwx-183" parent="1">
          <mxGeometry width="50" height="50" relative="1" as="geometry">
            <mxPoint x="40" y="1415.62" as="sourcePoint" />
            <mxPoint x="90" y="1365.62" as="targetPoint" />
          </mxGeometry>
        </mxCell>
        <mxCell id="WWRPXXlvS3BgG0VClWwx-185" value="" style="endArrow=none;html=1;rounded=0;exitX=0;exitY=0;exitDx=0;exitDy=0;entryX=1;entryY=1;entryDx=0;entryDy=0;" edge="1" source="WWRPXXlvS3BgG0VClWwx-183" target="WWRPXXlvS3BgG0VClWwx-183" parent="1">
          <mxGeometry width="50" height="50" relative="1" as="geometry">
            <mxPoint x="40" y="1295.62" as="sourcePoint" />
            <mxPoint x="90" y="1245.62" as="targetPoint" />
          </mxGeometry>
        </mxCell>
        <mxCell id="WWRPXXlvS3BgG0VClWwx-186" value="" style="rounded=0;whiteSpace=wrap;html=1;" vertex="1" parent="1">
          <mxGeometry x="110" y="1365.62" width="40" height="40" as="geometry" />
        </mxCell>
        <mxCell id="WWRPXXlvS3BgG0VClWwx-187" value="" style="endArrow=none;html=1;rounded=0;exitX=0;exitY=1;exitDx=0;exitDy=0;" edge="1" source="WWRPXXlvS3BgG0VClWwx-186" parent="1">
          <mxGeometry width="50" height="50" relative="1" as="geometry">
            <mxPoint x="100" y="1415.62" as="sourcePoint" />
            <mxPoint x="150" y="1365.62" as="targetPoint" />
          </mxGeometry>
        </mxCell>
        <mxCell id="WWRPXXlvS3BgG0VClWwx-188" value="" style="endArrow=none;html=1;rounded=0;exitX=0;exitY=0;exitDx=0;exitDy=0;entryX=1;entryY=1;entryDx=0;entryDy=0;" edge="1" source="WWRPXXlvS3BgG0VClWwx-186" target="WWRPXXlvS3BgG0VClWwx-186" parent="1">
          <mxGeometry width="50" height="50" relative="1" as="geometry">
            <mxPoint x="100" y="1295.62" as="sourcePoint" />
            <mxPoint x="150" y="1245.62" as="targetPoint" />
          </mxGeometry>
        </mxCell>
        <mxCell id="WWRPXXlvS3BgG0VClWwx-189" value="" style="rounded=0;whiteSpace=wrap;html=1;" vertex="1" parent="1">
          <mxGeometry x="170" y="1365.62" width="40" height="40" as="geometry" />
        </mxCell>
        <mxCell id="WWRPXXlvS3BgG0VClWwx-190" value="" style="endArrow=none;html=1;rounded=0;exitX=0;exitY=1;exitDx=0;exitDy=0;" edge="1" source="WWRPXXlvS3BgG0VClWwx-189" parent="1">
          <mxGeometry width="50" height="50" relative="1" as="geometry">
            <mxPoint x="160" y="1415.62" as="sourcePoint" />
            <mxPoint x="210" y="1365.62" as="targetPoint" />
          </mxGeometry>
        </mxCell>
        <mxCell id="WWRPXXlvS3BgG0VClWwx-191" value="" style="endArrow=none;html=1;rounded=0;exitX=0;exitY=0;exitDx=0;exitDy=0;entryX=1;entryY=1;entryDx=0;entryDy=0;" edge="1" source="WWRPXXlvS3BgG0VClWwx-189" target="WWRPXXlvS3BgG0VClWwx-189" parent="1">
          <mxGeometry width="50" height="50" relative="1" as="geometry">
            <mxPoint x="160" y="1295.62" as="sourcePoint" />
            <mxPoint x="210" y="1245.62" as="targetPoint" />
          </mxGeometry>
        </mxCell>
        <mxCell id="WWRPXXlvS3BgG0VClWwx-220" value="" style="html=1;verticalLabelPosition=bottom;labelBackgroundColor=#ffffff;verticalAlign=top;shadow=0;dashed=0;strokeWidth=1;shape=mxgraph.ios7.misc.iphone;strokeColor=#c0c0c0;" vertex="1" parent="1">
          <mxGeometry x="10.5" y="1560" width="240" height="480" as="geometry" />
        </mxCell>
        <mxCell id="WWRPXXlvS3BgG0VClWwx-221" value="Title" style="text;strokeColor=none;fillColor=none;html=1;fontSize=24;fontStyle=1;verticalAlign=middle;align=left;" vertex="1" parent="1">
          <mxGeometry x="55" y="1660" width="100" height="50" as="geometry" />
        </mxCell>
        <mxCell id="WWRPXXlvS3BgG0VClWwx-222" value="" style="rounded=0;whiteSpace=wrap;html=1;" vertex="1" parent="1">
          <mxGeometry x="55" y="1730" width="105" height="10" as="geometry" />
        </mxCell>
        <mxCell id="WWRPXXlvS3BgG0VClWwx-223" value="" style="rounded=0;whiteSpace=wrap;html=1;" vertex="1" parent="1">
          <mxGeometry x="55" y="1760" width="105" height="10" as="geometry" />
        </mxCell>
        <mxCell id="WWRPXXlvS3BgG0VClWwx-224" value="" style="rounded=0;whiteSpace=wrap;html=1;" vertex="1" parent="1">
          <mxGeometry x="55" y="1810" width="105" height="80" as="geometry" />
        </mxCell>
        <mxCell id="WWRPXXlvS3BgG0VClWwx-225" value="Button" style="rounded=1;fillColor=#0057D8;strokeColor=none;html=1;whiteSpace=wrap;fontColor=#ffffff;align=center;verticalAlign=middle;fontStyle=0;fontSize=12;sketch=0;" vertex="1" parent="1">
          <mxGeometry x="55" y="1910" width="63" height="30" as="geometry" />
        </mxCell>
        <mxCell id="WWRPXXlvS3BgG0VClWwx-226" value="" style="html=1;verticalLabelPosition=bottom;labelBackgroundColor=#ffffff;verticalAlign=top;shadow=0;dashed=0;strokeWidth=1;shape=mxgraph.ios7.misc.iphone;strokeColor=#c0c0c0;" vertex="1" parent="1">
          <mxGeometry x="11.5" y="2040" width="239" height="480" as="geometry" />
        </mxCell>
        <mxCell id="WWRPXXlvS3BgG0VClWwx-227" value="Title" style="text;strokeColor=none;fillColor=none;html=1;fontSize=24;fontStyle=1;verticalAlign=middle;align=left;" vertex="1" parent="1">
          <mxGeometry x="50" y="2130" width="100" height="50" as="geometry" />
        </mxCell>
        <mxCell id="WWRPXXlvS3BgG0VClWwx-229" value="Lorem ipsum dolor sit amet, consectetur adipisicing elit, sed do eiusmod tempor incididunt ut labore et dolore magna aliqua. Ut enim ad minim veniam, quis nostrud exercitation ullamco laboris nisi ut aliquip ex ea commodo consequat. Duis aute irure dolor in reprehenderit in voluptate velit esse cillum dolore eu fugiat nulla pariatur. Excepteur sint occaecat cupidatat non proident, sunt in culpa qui officia deserunt mollit anim id est laborum.&lt;br&gt;Sed ut perspiciatis unde omnis" style="text;spacingTop=-5;whiteSpace=wrap;html=1;align=left;fontSize=12;fontFamily=Helvetica;fillColor=none;strokeColor=none;" vertex="1" parent="1">
          <mxGeometry x="50" y="2180" width="170" height="240" as="geometry" />
        </mxCell>
        <mxCell id="WWRPXXlvS3BgG0VClWwx-231" value="" style="html=1;verticalLabelPosition=bottom;labelBackgroundColor=#ffffff;verticalAlign=top;shadow=0;dashed=0;strokeWidth=1;shape=mxgraph.ios7.misc.iphone;strokeColor=#c0c0c0;" vertex="1" parent="1">
          <mxGeometry x="16" y="2520" width="238" height="480" as="geometry" />
        </mxCell>
        <mxCell id="WWRPXXlvS3BgG0VClWwx-241" value="&lt;font style=&quot;font-size: 30px;&quot;&gt;L&lt;/font&gt;" style="ellipse;whiteSpace=wrap;html=1;" vertex="1" parent="1">
          <mxGeometry x="30.5" y="2630" width="59.5" height="60" as="geometry" />
        </mxCell>
        <mxCell id="WWRPXXlvS3BgG0VClWwx-242" value="" style="rounded=0;whiteSpace=wrap;html=1;" vertex="1" parent="1">
          <mxGeometry x="110" y="2640" width="10" height="10" as="geometry" />
        </mxCell>
        <mxCell id="WWRPXXlvS3BgG0VClWwx-243" value="" style="endArrow=none;html=1;rounded=0;exitX=0;exitY=1;exitDx=0;exitDy=0;entryX=1;entryY=0;entryDx=0;entryDy=0;" edge="1" source="WWRPXXlvS3BgG0VClWwx-242" target="WWRPXXlvS3BgG0VClWwx-242" parent="1">
          <mxGeometry width="50" height="50" relative="1" as="geometry">
            <mxPoint x="120" y="2680" as="sourcePoint" />
            <mxPoint x="170" y="2630" as="targetPoint" />
          </mxGeometry>
        </mxCell>
        <mxCell id="WWRPXXlvS3BgG0VClWwx-244" value="" style="endArrow=none;html=1;rounded=0;exitX=0;exitY=0;exitDx=0;exitDy=0;entryX=1;entryY=1;entryDx=0;entryDy=0;" edge="1" source="WWRPXXlvS3BgG0VClWwx-242" target="WWRPXXlvS3BgG0VClWwx-242" parent="1">
          <mxGeometry width="50" height="50" relative="1" as="geometry">
            <mxPoint x="130" y="2690" as="sourcePoint" />
            <mxPoint x="180" y="2640" as="targetPoint" />
          </mxGeometry>
        </mxCell>
        <mxCell id="WWRPXXlvS3BgG0VClWwx-245" value="" style="rounded=0;whiteSpace=wrap;html=1;" vertex="1" parent="1">
          <mxGeometry x="110" y="2670" width="10" height="10" as="geometry" />
        </mxCell>
        <mxCell id="WWRPXXlvS3BgG0VClWwx-246" value="" style="endArrow=none;html=1;rounded=0;exitX=0;exitY=1;exitDx=0;exitDy=0;entryX=1;entryY=0;entryDx=0;entryDy=0;" edge="1" source="WWRPXXlvS3BgG0VClWwx-245" target="WWRPXXlvS3BgG0VClWwx-245" parent="1">
          <mxGeometry width="50" height="50" relative="1" as="geometry">
            <mxPoint x="120" y="2710" as="sourcePoint" />
            <mxPoint x="170" y="2660" as="targetPoint" />
          </mxGeometry>
        </mxCell>
        <mxCell id="WWRPXXlvS3BgG0VClWwx-247" value="" style="endArrow=none;html=1;rounded=0;exitX=0;exitY=0;exitDx=0;exitDy=0;entryX=1;entryY=1;entryDx=0;entryDy=0;" edge="1" source="WWRPXXlvS3BgG0VClWwx-245" target="WWRPXXlvS3BgG0VClWwx-245" parent="1">
          <mxGeometry width="50" height="50" relative="1" as="geometry">
            <mxPoint x="130" y="2720" as="sourcePoint" />
            <mxPoint x="180" y="2670" as="targetPoint" />
          </mxGeometry>
        </mxCell>
        <mxCell id="WWRPXXlvS3BgG0VClWwx-248" value="" style="rounded=0;whiteSpace=wrap;html=1;" vertex="1" parent="1">
          <mxGeometry x="127" y="2640" width="90" height="10" as="geometry" />
        </mxCell>
        <mxCell id="WWRPXXlvS3BgG0VClWwx-249" value="" style="rounded=0;whiteSpace=wrap;html=1;" vertex="1" parent="1">
          <mxGeometry x="127" y="2670" width="90" height="10" as="geometry" />
        </mxCell>
        <mxCell id="WWRPXXlvS3BgG0VClWwx-259" value="Lorem ipsum dolor sit amet, consectetur adipisicing elit, sed do eiusmod tempor incididunt ut labore et dolore magna aliqua. Ut enim ad minim veniam, quis nostrud exercitation ullamco laboris nisi ut aliquip ex ea commodo consequat. Duis aute irure&amp;nbsp;" style="text;spacingTop=-5;whiteSpace=wrap;html=1;align=left;fontSize=12;fontFamily=Helvetica;fillColor=none;strokeColor=none;" vertex="1" parent="1">
          <mxGeometry x="45.5" y="2710" width="170" height="130" as="geometry" />
        </mxCell>
        <mxCell id="WWRPXXlvS3BgG0VClWwx-264" value="" style="endArrow=none;html=1;rounded=0;exitX=0.059;exitY=0.764;exitDx=0;exitDy=0;exitPerimeter=0;" edge="1" parent="1" source="WWRPXXlvS3BgG0VClWwx-231">
          <mxGeometry width="50" height="50" relative="1" as="geometry">
            <mxPoint x="360" y="2850" as="sourcePoint" />
            <mxPoint x="241" y="2887" as="targetPoint" />
          </mxGeometry>
        </mxCell>
        <mxCell id="WWRPXXlvS3BgG0VClWwx-266" value="" style="rounded=0;whiteSpace=wrap;html=1;" vertex="1" parent="1">
          <mxGeometry x="45.5" y="2900" width="90" height="12" as="geometry" />
        </mxCell>
      </root>
    </mxGraphModel>
  </diagram>
</mxfile>
